<?xml version="1.0" encoding="utf-8"?>
<!-- Generator: Adobe Illustrator 26.0.1, SVG Export Plug-In . SVG Version: 6.00 Build 0)  -->
<svg version="1.1" id="svg9" xmlns:svg="http://www.w3.org/2000/svg"
	 xmlns="http://www.w3.org/2000/svg" xmlns:xlink="http://www.w3.org/1999/xlink" x="0px" y="0px" viewBox="0 0 666.7 666.7"
	 style="enable-background:new 0 0 666.7 666.7;" xml:space="preserve">
<style type="text/css">
	.st0{fill:#F7E4D5;}
</style>
<g>
	<path class="st0" d="M333.3,1.2C149.9,1.2,1.2,149.9,1.2,333.3s148.7,332.1,332.1,332.1s332.1-148.7,332.1-332.1
		S516.8,1.2,333.3,1.2z M243.1,184.4l107.4,186H135.7L243.1,184.4z M179.2,533.8c-18,0-34.5-10.2-42.7-26.4l-40-69.2l293.2,0
		l55.1,95.5H179.2z M560.7,467.7l-37.9,65.6L282.4,116.9h82.3c17.7,0,34,9.8,42.2,25.4l155.7,270.5c4.8,7.5,7.6,16.4,7.6,25.9h0
		C570.2,449.6,568.1,455.2,560.7,467.7z"/>
</g>
</svg>
