<?xml version="1.0" encoding="utf-8"?>
<!-- Generator: Adobe Illustrator 26.0.1, SVG Export Plug-In . SVG Version: 6.00 Build 0)  -->
<svg version="1.1" id="svg9" xmlns:svg="http://www.w3.org/2000/svg"
	 xmlns="http://www.w3.org/2000/svg" xmlns:xlink="http://www.w3.org/1999/xlink" x="0px" y="0px" viewBox="0 0 666.7 666.7"
	 style="enable-background:new 0 0 666.7 666.7;" xml:space="preserve">
<style type="text/css">
	.st0{fill:#F7E4D5;}
</style>
<path class="st0" d="M1140.2,202.9c-20.1,0-36.2-16.4-36.2-36.1c0-19.7,15.9-36.3,36.3-36.2c19.9,0,36.1,16.2,36.1,36.2
	C1176.4,187,1159.9,203,1140.2,202.9z M1140.9,180.3c0-2.7,0-5.4,0-8c0-0.5,0-0.9,0-1.4c0-0.3,0.3-0.6,0.5-0.6c0.4,0,0.8,0,1.2,0
	c1.7,0,3.4,0,5.1,0c0.4,0,0.8,0,1.2-0.1c0.6-0.1,1.1-0.5,1.3-1.1c0.1-0.4,0.2-0.8,0.2-1.2c0.1-1,0.3-2.1,0.4-3.1
	c0-0.2,0-0.5,0.1-0.7c0.1-1.2-0.5-1.9-1.7-1.9c-0.4,0-0.8,0-1.2,0c-1.9,0-3.7,0-5.6,0c-0.3,0-0.7,0-1-0.1c-0.2,0-0.3-0.2-0.4-0.3
	c-0.1-0.2-0.1-0.3-0.1-0.5c0-2,0-4,0-5.9c0-0.3,0.1-0.7,0.1-1c0.4-1.6,1.4-2.6,3-3.1c0.4-0.1,0.8-0.1,1.2-0.1c1.3,0,2.6,0,3.8,0
	c0.3,0,0.7,0,1-0.1c0.4,0,0.7-0.5,0.8-0.8c0-0.1,0-0.2,0-0.3c0-1.9,0-3.7,0-5.6c0-0.1,0-0.2,0-0.3c-0.1-0.5-0.4-0.8-0.9-0.9
	c-0.2,0-0.3,0-0.5,0c-2.3,0-4.5,0-6.8,0c-3.8,0-7.8,2.6-9.3,6.8c-0.4,1.2-0.6,2.4-0.6,3.6c0,2.4,0,4.8,0,7.2c0,0.4-0.1,0.8-0.1,1.2
	c0,0.2-0.2,0.3-0.3,0.3c-0.3,0.1-0.6,0.1-0.9,0.1c-1.2,0-2.4,0-3.7,0c-0.4,0-0.8,0-1.2,0.1c-0.4,0-0.6,0.3-0.7,0.7
	c-0.1,0.2-0.1,0.3-0.1,0.5c0,1.9,0,3.7,0,5.6c0,0.8,0.5,1.2,1.2,1.2c0.3,0,0.6,0,0.9,0c1.3,0,2.6,0,3.8,0c1,0,1.1,0.1,1.1,1.1
	c0,0.5,0,0.9,0,1.4c0,5,0,10,0,15c0,0.5,0,1,0,1.6c0,0.5,0.2,0.7,0.7,0.8c2.1,0.4,4.3,0.5,6.4,0.4c0.1,0,0.2,0,0.3,0
	c0.3,0,0.5-0.3,0.5-0.6c0-0.3,0-0.7,0-1C1140.9,186,1140.9,183.1,1140.9,180.3z"/>
<g>
	<path class="st0" d="M333.3,1.2C149.9,1.2,1.2,149.9,1.2,333.3s148.7,332.1,332.1,332.1s332.1-148.7,332.1-332.1
		S516.8,1.2,333.3,1.2z M257.9,490.9H184V252.6h73.8V490.9z M220.6,221.4c-24.1,0-43.7-19.7-43.7-44c0-24.3,19.5-44,43.7-44
		c24.1,0,43.6,19.7,43.6,44C264.2,201.7,244.7,221.4,220.6,221.4z M534.4,490.9H461V365.8c0-34.3-13-53.5-40.2-53.5
		c-29.5,0-45,19.9-45,53.5v125.1H305V252.6h70.8v32.1c0,0,21.3-39.4,71.9-39.4c50.6,0,86.7,30.9,86.7,94.7V490.9z"/>
</g>
</svg>
