<?xml version="1.0" encoding="utf-8"?>
<!-- Generator: Adobe Illustrator 26.0.1, SVG Export Plug-In . SVG Version: 6.00 Build 0)  -->
<svg version="1.1" id="svg9" xmlns:svg="http://www.w3.org/2000/svg"
	 xmlns="http://www.w3.org/2000/svg" xmlns:xlink="http://www.w3.org/1999/xlink" x="0px" y="0px" viewBox="0 0 666.7 666.7"
	 style="enable-background:new 0 0 666.7 666.7;" xml:space="preserve">
<style type="text/css">
	.st0{fill:#F7E4D5;}
</style>
<path class="st0" d="M333.3,1.2C149.2,1.2,0,150.5,0,334.6C0,490.9,107.6,622,252.8,658.1V436.4h-68.7V334.6h0v0h68.7v-43.9
	c0-113.5,51.3-166,162.7-166c11,0,26.2,1.1,40.4,2.8c12.9,1.5,25,3.5,32.1,5.5v92.3c-4.3-0.5-10.5-0.8-17.9-1
	c-6-0.2-13-0.2-20.6-0.2c-20.3,0-36,2.9-47.7,9.2c-7.2,3.9-12.9,9.2-17.2,15.9c-7.5,11.7-10.9,27.9-10.9,49.4v36h108.9l0,0h0
	l-10.7,58.1l-8,43.8h0l0,0h-90.2v229c165-19.9,293-160.5,293-330.9C666.7,150.5,517.4,1.2,333.3,1.2z"/>
<path class="st0" d="M1140.2,202.9c-20.1,0-36.2-16.4-36.2-36.1c0-19.7,15.9-36.3,36.3-36.2c19.9,0,36.1,16.2,36.1,36.2
	C1176.4,187,1159.9,203,1140.2,202.9z M1140.9,180.3c0-2.7,0-5.4,0-8c0-0.5,0-0.9,0-1.4c0-0.3,0.3-0.6,0.5-0.6c0.4,0,0.8,0,1.2,0
	c1.7,0,3.4,0,5.1,0c0.4,0,0.8,0,1.2-0.1c0.6-0.1,1.1-0.5,1.3-1.1c0.1-0.4,0.2-0.8,0.2-1.2c0.1-1,0.3-2.1,0.4-3.1
	c0-0.2,0-0.5,0.1-0.7c0.1-1.2-0.5-1.9-1.7-1.9c-0.4,0-0.8,0-1.2,0c-1.9,0-3.7,0-5.6,0c-0.3,0-0.7,0-1-0.1c-0.2,0-0.3-0.2-0.4-0.3
	c-0.1-0.2-0.1-0.3-0.1-0.5c0-2,0-4,0-5.9c0-0.3,0.1-0.7,0.1-1c0.4-1.6,1.4-2.6,3-3.1c0.4-0.1,0.8-0.1,1.2-0.1c1.3,0,2.6,0,3.8,0
	c0.3,0,0.7,0,1-0.1c0.4,0,0.7-0.5,0.8-0.8c0-0.1,0-0.2,0-0.3c0-1.9,0-3.7,0-5.6c0-0.1,0-0.2,0-0.3c-0.1-0.5-0.4-0.8-0.9-0.9
	c-0.2,0-0.3,0-0.5,0c-2.3,0-4.5,0-6.8,0c-3.8,0-7.8,2.6-9.3,6.8c-0.4,1.2-0.6,2.4-0.6,3.6c0,2.4,0,4.8,0,7.2c0,0.4-0.1,0.8-0.1,1.2
	c0,0.2-0.2,0.3-0.3,0.3c-0.3,0.1-0.6,0.1-0.9,0.1c-1.2,0-2.4,0-3.7,0c-0.4,0-0.8,0-1.2,0.1c-0.4,0-0.6,0.3-0.7,0.7
	c-0.1,0.2-0.1,0.3-0.1,0.5c0,1.9,0,3.7,0,5.6c0,0.8,0.5,1.2,1.2,1.2c0.3,0,0.6,0,0.9,0c1.3,0,2.6,0,3.8,0c1,0,1.1,0.1,1.1,1.1
	c0,0.5,0,0.9,0,1.4c0,5,0,10,0,15c0,0.5,0,1,0,1.6c0,0.5,0.2,0.7,0.7,0.8c2.1,0.4,4.3,0.5,6.4,0.4c0.1,0,0.2,0,0.3,0
	c0.3,0,0.5-0.3,0.5-0.6c0-0.3,0-0.7,0-1C1140.9,186,1140.9,183.1,1140.9,180.3z"/>
</svg>
