<?xml version="1.0" encoding="utf-8"?>
<!-- Generator: Adobe Illustrator 26.0.1, SVG Export Plug-In . SVG Version: 6.00 Build 0)  -->
<svg version="1.1" id="Calque_1" xmlns="http://www.w3.org/2000/svg" xmlns:xlink="http://www.w3.org/1999/xlink" x="0px" y="0px"
	 viewBox="0 0 72 72.1" style="enable-background:new 0 0 72 72.1;" xml:space="preserve">
<style type="text/css">
	.st0{fill:#F7E4D5;}
</style>
<g>
	<g>
		
			<ellipse transform="matrix(0.9993 -3.690744e-02 3.690744e-02 0.9993 -1.3054 1.352)" class="st0" cx="36" cy="36" rx="8.1" ry="8.1"/>
		<path class="st0" d="M54.9,21.7c-0.4-1.1-1-2-1.8-2.8c-0.8-0.8-1.7-1.4-2.8-1.8c-0.9-0.3-2.1-0.7-4.5-0.8
			c-2.6-0.1-3.3-0.1-9.8-0.1l0,0c-6.5,0-7.2,0-9.8,0.1c-2.4,0.1-3.6,0.5-4.5,0.8c-1.1,0.4-2,1-2.8,1.8c-0.8,0.8-1.4,1.7-1.8,2.8
			c-0.3,0.9-0.7,2.1-0.8,4.5c-0.1,2.6-0.1,3.3-0.1,9.8s0,7.2,0.1,9.8c0.1,2.4,0.5,3.6,0.8,4.5c0.4,1.1,1,2,1.8,2.8
			c0.8,0.8,1.7,1.4,2.8,1.8c0.9,0.3,2.1,0.7,4.5,0.8c2.6,0.1,3.3,0.1,9.8,0.1c6.5,0,7.2,0,9.8-0.1c2.4-0.1,3.6-0.5,4.5-0.8
			c2.1-0.8,3.8-2.5,4.6-4.6c0.3-0.9,0.7-2.1,0.8-4.5c0.1-2.6,0.1-3.3,0.1-9.8s0-7.2-0.1-9.8C55.6,23.9,55.2,22.6,54.9,21.7z
			 M36,48.5c-6.9,0-12.5-5.6-12.5-12.5c0-6.9,5.6-12.5,12.5-12.5c6.9,0,12.5,5.6,12.5,12.5C48.4,42.9,42.8,48.5,36,48.5z M48.9,26
			c-1.6,0-2.9-1.3-2.9-2.9c0-1.6,1.3-2.9,2.9-2.9s2.9,1.3,2.9,2.9C51.8,24.7,50.5,26,48.9,26z"/>
		<path class="st0" d="M36,0C16.1,0,0,16.2,0,36s16.1,36,36,36s36-16.1,36-36S55.8,0,36,0z M60.1,46c-0.1,2.6-0.5,4.3-1.1,5.9
			c-1.3,3.3-3.8,5.8-7.1,7.1c-1.5,0.6-3.3,1-5.9,1.1c-2.6,0.1-3.4,0.1-10,0.1s-7.4,0-10-0.1c-2.6-0.1-4.3-0.5-5.9-1.1
			c-1.6-0.6-3.1-1.6-4.3-2.8c-1.2-1.2-2.2-2.7-2.8-4.3c-0.6-1.5-1-3.3-1.1-5.9c-0.1-2.6-0.1-3.4-0.1-10c0-6.6,0-7.4,0.1-10
			c0.1-2.6,0.5-4.3,1.1-5.9c0.6-1.6,1.6-3.1,2.8-4.3c1.2-1.2,2.7-2.2,4.3-2.8c1.5-0.6,3.3-1,5.9-1.1c2.6-0.1,3.4-0.1,10-0.1
			c0,0,0,0,0,0h0c0,0,0,0,0,0c6.6,0,7.4,0,10,0.1c2.6,0.1,4.3,0.5,5.9,1.1c1.6,0.6,3.1,1.6,4.3,2.8c1.2,1.2,2.2,2.7,2.8,4.3
			c0.6,1.5,1,3.3,1.1,5.9c0.1,2.6,0.1,3.4,0.1,10S60.2,43.4,60.1,46z"/>
	</g>
</g>
<path class="st0" d="M2004.7-152.1c-20.1,0-36.2-16.4-36.2-36.1c0-19.7,15.9-36.3,36.3-36.2c19.9,0,36.1,16.2,36.1,36.2
	C2040.8-168,2024.4-152,2004.7-152.1z M2005.4-174.7c0-2.7,0-5.4,0-8c0-0.5,0-0.9,0-1.4c0-0.3,0.3-0.6,0.5-0.6c0.4,0,0.8,0,1.2,0
	c1.7,0,3.4,0,5.1,0c0.4,0,0.8,0,1.2-0.1c0.6-0.1,1.1-0.5,1.3-1.1c0.1-0.4,0.2-0.8,0.2-1.2c0.1-1,0.3-2.1,0.4-3.1
	c0-0.2,0-0.5,0.1-0.7c0.1-1.2-0.5-1.9-1.7-1.9c-0.4,0-0.8,0-1.2,0c-1.9,0-3.7,0-5.6,0c-0.3,0-0.7,0-1-0.1c-0.2,0-0.3-0.2-0.4-0.3
	c-0.1-0.2-0.1-0.3-0.1-0.5c0-2,0-4,0-5.9c0-0.3,0.1-0.7,0.1-1c0.4-1.6,1.4-2.6,3-3.1c0.4-0.1,0.8-0.1,1.2-0.1c1.3,0,2.6,0,3.8,0
	c0.3,0,0.7,0,1-0.1c0.4,0,0.7-0.5,0.8-0.8c0-0.1,0-0.2,0-0.3c0-1.9,0-3.7,0-5.6c0-0.1,0-0.2,0-0.3c-0.1-0.5-0.4-0.8-0.9-0.9
	c-0.2,0-0.3,0-0.5,0c-2.3,0-4.5,0-6.8,0c-3.8,0-7.8,2.6-9.3,6.8c-0.4,1.2-0.6,2.4-0.6,3.6c0,2.4,0,4.8,0,7.2c0,0.4-0.1,0.8-0.1,1.2
	c0,0.2-0.2,0.3-0.3,0.3c-0.3,0.1-0.6,0.1-0.9,0.1c-1.2,0-2.4,0-3.7,0c-0.4,0-0.8,0-1.2,0.1c-0.4,0-0.6,0.3-0.7,0.7
	c-0.1,0.2-0.1,0.3-0.1,0.5c0,1.9,0,3.7,0,5.6c0,0.8,0.5,1.2,1.2,1.2c0.3,0,0.6,0,0.9,0c1.3,0,2.6,0,3.8,0c1,0,1.1,0.1,1.1,1.1
	c0,0.5,0,0.9,0,1.4c0,5,0,10,0,15c0,0.5,0,1,0,1.6c0,0.5,0.2,0.7,0.7,0.8c2.1,0.4,4.3,0.5,6.4,0.4c0.1,0,0.2,0,0.3,0
	c0.3,0,0.5-0.3,0.5-0.6c0-0.3,0-0.7,0-1C2005.4-169,2005.4-171.9,2005.4-174.7z"/>
</svg>
