<?xml version="1.0" encoding="utf-8"?>
<!-- Generator: Adobe Illustrator 26.0.1, SVG Export Plug-In . SVG Version: 6.00 Build 0)  -->
<svg version="1.1" id="Calque_1" xmlns="http://www.w3.org/2000/svg" xmlns:xlink="http://www.w3.org/1999/xlink" x="0px" y="0px"
	 viewBox="0 0 378 482" style="enable-background:new 0 0 378 482;" xml:space="preserve">
<style type="text/css">
	.st0{fill:#F6E3D4;}
	.st1{fill:none;}
	.st2{fill:#8799EC;}
</style>
<rect class="st0" width="378" height="482"/>
<g id="b2dbcafd-bb3c-419b-b069-7f6bd050d8f7">
	<g id="bccc94a5-c121-4695-b949-85926d0f4efc">
		<path class="st1" d="M58.6,273.5c2.4,0.3,5.6,1.8,7.5,7.1c0.1,0.3,0.2,0.7,0.3,1c5.8-1.3,11.7-2,17.6-2.3
			c1.4-20.1,1.8-51.5-2.4-57.7c-0.2-0.3-0.4-0.6-0.6-0.8c-1.3,2.2-2.5,9-3.5,20.1l0,0.4c-0.1,0.9-0.2,1.9-0.3,3
			c-1.8,20.6-3.5,30-8.9,30.9c-0.9,0.2-1.9-0.1-2.7-0.6c-2.4-1.7-3.2-6.3-5.6-23.6c-0.5-4-1.1-8.2-1.7-12.4
			c-0.8-5.3-2.2-8.8-3.2-10.4c-1.5,5.4-2.1,24,1.4,45.2C57.3,273.4,57.9,273.4,58.6,273.5z"/>
		<path class="st1" d="M45.3,338.2c2.5,0.6,5.1,1.1,7.7,1.4l-0.2-3.9C50.3,336.5,47.8,337.3,45.3,338.2z"/>
		<path class="st1" d="M114,185.8l8.9,10.4l-2.1-20c-2.8,0.2-7.9,1-11.4,3.6c-2,1.5-3.4,4.4-3.9,7.9c-0.4,3.5,0.2,7.1,1.6,8.7
			c2.2,2.6,6.9,6.6,15.5,6.1l0-0.1c-0.6-0.1-1.2-0.4-1.7-0.9L110.2,189c-0.9-1-0.8-2.6,0.3-3.5C111.5,184.6,113.1,184.7,114,185.8
			L114,185.8z"/>
		<path class="st1" d="M46.6,283.4c-4.3,3.7-7.5,6.9-8,8.3c0.2,1.3,0.5,3.4,0.9,6.1c0.7,5.2,2.5,19.1,4.4,21.2
			c0.8,0.8,2.7,1.2,4.8,1.4c-0.1-0.1-0.1-0.2-0.2-0.3C44,311.4,43.9,293.5,46.6,283.4z"/>
		<path class="st1" d="M136.2,138.4c-1.8-0.9-2.6-3.2-1.6-5c0.3-0.5,0.7-1,1.2-1.3c8.6-5.4,19.3-6.2,28.6-2c1.9,0.8,2.8,3,1.9,4.9
			c-0.3,0.7-0.8,1.3-1.4,1.7c5,2.2,9.5,5.4,13.1,9.5c1.4,1.6,2.6,3.4,3.7,5.3c3.4-6.7,8.6-12.4,15.1-16.3c-0.5-0.3-0.9-0.7-1.2-1.2
			c-1-1.8-0.4-4.1,1.4-5.1c0,0,0,0,0,0c9-4.6,19.8-4.4,28.6,0.6c1.8,1,2.5,3.3,1.5,5.1c0,0,0,0,0,0c-0.1,0.3-0.3,0.5-0.5,0.7
			c2.9,1.8,5.5,4,7.7,6.6c4.6,5.3,7.6,11.8,8.4,18.7l18.5-1c-5.9-11.6-13.2-27-13.9-32.5c-0.6-4.7,1.3-7.3,3.5-10.2
			c2.3-3.1,4.9-6.6,5.7-13.8c1.5-14.3-4.4-26.1-8.8-29.5c-4.3-3.3-20.4-2-33.5,1.1c-13.6,3.3-25.4,11.4-32.4,16.2
			c-1.7,1.2-3.4,2.3-5.2,3.3c-6.6,2.9-11.8,2.9-15.8-0.1c-1.7-1.3-3.2-2.8-4.6-4.4c-4-4.3-8.4-9.1-17.4-9.4
			c-7.8-0.3-11.3,3.8-12.9,6.8c-0.7,4-1.6,17.6,0.8,61.1C129.2,144,132.4,140.8,136.2,138.4z"/>
		<path class="st1" d="M65,288L65,288c-0.2,0.1-0.4,0.1-0.5,0.2c-0.2,0-0.3,0.1-0.4,0.1h0c-0.2,0.1-0.4,0.2-0.5,0.2
			c-0.4,0.2-0.8,0.5-0.8,0.8c0,0.6,1,1.8,3.6,2.9c2.7,1.2,6.6,1.9,11.3,2.1c1.6,0.1,2.8,1.4,2.8,3c-0.1,1.6-1.4,2.8-3,2.8
			c-3.2-0.1-6.3-0.5-9.4-1.3c0,0.9,0,1.8-0.1,2.7c-0.2,7.8-0.3,13.5-2.3,18l0,0c-1.2,2.7-4,5.7-7.6,6.3l1.1,14.2
			c9.9,0.7,19.9,0.1,29.6-1.7c0-3.2,0.1-7.6,0.2-9.5c0-0.1,0-0.1,0-0.2c0,0,0,0,0-0.1c1.3-27.2,1-40.1,0.4-43.4
			C85.9,284.6,72.1,285.8,65,288z"/>
		<path class="st1" d="M60.4,317.3c1.5-3.5,1.7-8.7,1.8-15.8c0-1.5,0.1-3.1,0.1-4.7c0,0-0.1-0.1-0.1-0.1c-0.1-0.1-0.3-0.2-0.4-0.2
			c-0.2-0.1-0.3-0.2-0.4-0.3s-0.3-0.2-0.4-0.3c-0.1-0.1-0.3-0.2-0.4-0.3c-0.1-0.1-0.2-0.2-0.3-0.3c-0.1-0.1-0.2-0.2-0.3-0.3
			c-0.1-0.1-0.2-0.2-0.3-0.3c-0.1-0.1-0.2-0.2-0.3-0.3c-0.1-0.1-0.2-0.2-0.2-0.3c-0.1-0.1-0.2-0.2-0.3-0.3c-0.1-0.1-0.1-0.2-0.2-0.2
			c-0.1-0.2-0.3-0.3-0.4-0.5c0-0.1-0.1-0.1-0.1-0.2c-0.1-0.1-0.1-0.2-0.2-0.3c0-0.1-0.1-0.2-0.1-0.2c0-0.1-0.1-0.2-0.1-0.3
			c0-0.1-0.1-0.1-0.1-0.2c0-0.1-0.1-0.2-0.1-0.3c0-0.1-0.1-0.1-0.1-0.2c0-0.1-0.1-0.2-0.1-0.3c0-0.1,0-0.1-0.1-0.2
			c0-0.1,0-0.2-0.1-0.2c0-0.1,0-0.1,0-0.2c0-0.1,0-0.2,0-0.2c0-0.1,0-0.1,0-0.2c0-0.1,0-0.2,0-0.2c0,0,0-0.1,0-0.1
			c0-0.1,0-0.2,0-0.3c0-0.3,0-0.6,0-0.9c0-0.1,0-0.2,0.1-0.3c0-0.2,0.1-0.4,0.1-0.6c0-0.1,0.1-0.2,0.1-0.4c0.1-0.2,0.1-0.4,0.2-0.5
			c0.1-0.1,0.1-0.2,0.2-0.4c0.1-0.2,0.2-0.3,0.3-0.5c0.1-0.1,0.2-0.2,0.3-0.4c0.1-0.1,0.2-0.3,0.3-0.4c0.1-0.1,0.2-0.2,0.3-0.3
			c0.1-0.1,0.2-0.2,0.4-0.4s0.2-0.2,0.4-0.3s0.3-0.2,0.4-0.3c0.1-0.1,0.3-0.2,0.4-0.3c0.1-0.1,0.2-0.2,0.4-0.2
			c-0.1-0.3-0.1-0.5-0.2-0.8c-0.7-2-1.7-3.2-2.8-3.3c-0.1,0-0.2,0-0.4,0c-1.4,0.1-2.8,0.8-3.7,1.9c-3.4,4.8-4.7,27.2-0.1,36.3
			c0.7,1.3,1.7,2.8,3,2.8h0C58.1,320.2,59.7,318.7,60.4,317.3z"/>
		<path class="st1" d="M95,337.1c1.4-0.4,2.8-0.8,4.1-1.3c1.9-0.6,3.7-1.4,5.4-2.3c-3.1-0.8-6.4-1.2-9.6-1.4
			C94.9,333.2,94.9,334.8,95,337.1z"/>
		<path class="st1" d="M284.6,186.6c1.1,0.9,1.2,2.4,0.4,3.5l-12.6,15.5c8.7-0.5,13.3-5,15.4-7.9c1.4-2,1.9-6,1.1-9.8
			c-0.8-3.9-2.5-7-4.9-8.5c-3.9-2.5-9.1-3-12.3-3.1c-0.2,6.6-0.5,13-0.9,19l-0.1,4.4l10.4-12.8C282,185.9,283.6,185.8,284.6,186.6z"
			/>
		<path class="st1" d="M248,270.4c-0.1,0-0.2,0-0.3,0c0,0-0.1,0-0.1,0c-0.9,0-1.7-0.4-2.3-0.9l0,6.9c0,2.1-1.7,3.8-3.7,3.8
			c0,0,0,0,0,0h0c-1.4,0-2.7-0.8-3.3-2c-0.9,1.6-1.7,3-2.5,4.2l-0.1,3.7c-0.1,2-1.7,3.6-3.7,3.6h-0.1c-0.8,0-1.6-0.3-2.3-0.9
			c-0.4,0.2-0.7,0.4-1.1,0.5c0.1,9.3,0.2,24.4,0.5,42.6c0.2-0.3,0.5-0.5,0.8-0.6c15.7-8.4,29.6-11.3,38.8-13.2
			c3.8-0.8,8.4-1.7,9.7-2.6c0-0.3,0.1-0.6,0.2-0.9c0.1-0.2,1.6-4.8-13.5-24.1c-8.1-10.4-16.7-19.6-16.8-19.7
			C248.1,270.6,248.1,270.5,248,270.4z"/>
		<path class="st1" d="M191.3,308.3L191.3,308.3c-2.6,0-4.6-2-4.7-4.5l0-2.3c-1,0-2-0.1-3-0.2c1.2,5,3.2,10.2,6.7,13.6
			c2.5,2.6,6,4,9.6,3.9c2.6,0,5-1.2,6.7-3.1c3.1-3.3,5.2-8.5,6.6-14.2c-0.6,0.2-1.2,0.4-1.8,0.4c-0.1,0-0.1,0-0.2,0
			c-2.1-0.1-3.8-1.6-4.3-3.6c-0.4,0.1-0.8,0.2-1.1,0.3l0,1.5c0,2.5-2.1,4.5-4.6,4.5h-0.1c-2.2,0-4.1-1.7-4.4-3.8
			c-0.3,0.1-0.6,0.1-1,0.2l0.1,2.7C195.8,306.2,193.8,308.2,191.3,308.3z"/>
		<path class="st1" d="M220.2,296.3c-1.5,8.9-4.3,18.1-9.4,23.4c-2.8,3.1-6.7,4.8-10.8,4.9h-0.3c-5.1,0.1-10-1.9-13.6-5.6
			c-3.7-3.8-6.1-9-7.6-14.2c-0.6,0-1.2-0.2-1.8-0.5c0.7,4.6,2,9.1,3.8,13.4c4.7,10.9,11.9,16.1,21.4,15.5
			c12.3-0.8,17.4-17.4,19.2-33.2c0-1.1,0-2.2,0-3.2C220.7,296.7,220.4,296.5,220.2,296.3z"/>
		<path class="st1" d="M260.7,193.4c0.1-1.6,1.2-2.9,2.7-3.3l0.2-10.6c0-0.6,0.2-1.1,0.4-1.6c0.1-3.7,0.2-7.4,0.3-11.2l-22.1,1.2
			c-2.3,13.7-8.5,26.2-32.9,28.5c-1,0.1-1.9,0.1-2.8,0.1c-6.5,0.1-12.8-2.4-17.6-6.8c-2.7-2.5-4.9-5.4-6.6-8.7
			c-1.9,10.6-4.8,15.3-9.2,15.3c-1.1,0.1-2.2,0.7-2.9,1.6c-1.2,1.5-1.6,3.4-1.2,5.3c0.4,2.3,5.7,4,16.9,2.6c1.6-0.2,3.1,0.9,3.3,2.5
			c0.2,1.6-0.9,3.1-2.5,3.3c-2.7,0.3-5.3,0.5-8,0.6c-11.5,0-14.8-4.2-15.4-8c-0.8-4.9,0.9-8.1,2.5-10c1.8-2.2,4.4-3.5,7.2-3.7
			c1.2-0.7,2.4-4.5,3.4-9.6c-6.7,8.7-16.7,14.3-27.7,15.3c-1.2,0.1-2.3,0.2-3.4,0.2c-6.1,0-11.3-1.6-15.3-4.8
			c0.9,8.1,2,15.5,3.2,22.4c1.3,0.5,2.3,1.6,2.5,3l2.6,19.8c0.1,0.2,0.1,0.5,0.2,0.7l-0.9-7.4c-0.2-2.1,1.2-3.9,3.3-4.1
			c2-0.2,3.9,1.2,4.1,3.2l1.6,12.6c0.1-2.1,1.9-3.6,3.9-3.5c1.9,0.1,3.4,1.5,3.5,3.4l1.2,11.9c0.2,0.1,0.3,0.3,0.5,0.4l-0.5-6.4
			c-0.2-2.1,1.4-3.9,3.4-4s3.9,1.4,4,3.4l1,12.3c0.1,0,0.2,0.1,0.3,0.2l0-0.5c-0.2-2.1,1.4-3.9,3.4-4c2.1-0.2,3.9,1.4,4,3.4l0.4,4.7
			c0.7,0.3,1.4,0.5,2.2,0.7l0-6.2c0-2.5,2-4.6,4.6-4.6c2.5,0,4.6,2,4.6,4.6l0,8.4c0.9,0.1,1.7,0.2,2.6,0.3l-0.1-3.5
			c-0.1-2.5,2-4.6,4.5-4.7s4.6,2,4.7,4.5l0.1,3.7c0.7-0.1,1.5-0.2,2.3-0.4l0.2-9.3c0-2.5,2.1-4.5,4.6-4.5h0.1c2.5,0,4.5,2.1,4.5,4.7
			l-0.1,6c0.6-0.3,1.2-0.5,1.8-0.8l0.2-6.2c0.1-2.5,2.2-4.5,4.8-4.4s4.5,2.2,4.4,4.8l0,0.4c0.5-0.3,0.9-0.6,1.4-0.9l0.2-10.1
			c0-2.5,2.1-4.5,4.7-4.5c2.5,0,4.5,2.1,4.5,4.7l-0.1,3c0.5-0.4,0.9-0.7,1.4-1.1l0.2-5.6c0.1-2.1,1.8-3.7,3.9-3.6
			c1.6,0.1,2.9,1.1,3.4,2.6c0.2-0.2,0.4-0.3,0.5-0.5l0-8.4c0-2.1,1.7-3.8,3.7-3.8h0c2.1,0,3.7,1.7,3.7,3.7v1c0,0,0.1-0.1,0.1-0.1
			l0.3-8.3c0.1-2.1,1.8-3.7,3.9-3.6c1.1,0,2.1,0.6,2.8,1.4l0.9-12.3c0.2-2.1,2-3.6,4-3.4c0.8,0.1,1.6,0.4,2.2,0.9L260.7,193.4z
			 M238.5,210.1c-0.8,1.1-19.3,25-53.1,25c-2.3,0-4.7-0.1-7.1-0.3c-18.7-1.8-30.7-10.2-37.4-16.9c-2-2-3.8-4.1-5.4-6.5
			c-0.4-0.7-0.5-1.5-0.3-2.3l2.3-8.3c0.4-1.6,2-2.5,3.6-2c1.6,0.4,2.5,2,2,3.6l-1.9,7c0.3,0.4,0.7,0.9,1.1,1.4l2.7-7.1
			c0.7-1.9,2.9-2.9,4.8-2.2c1.9,0.7,2.9,2.9,2.2,4.8l-3.9,10.2c0.7,0.6,1.4,1.1,2.1,1.7l3.5-10.1c0.7-2,2.8-3,4.7-2.4s3,2.8,2.4,4.7
			c0,0,0,0,0,0l-4,11.8c1.3,0.7,2.6,1.3,4.1,2l2.7-11.3c0.5-2,2.5-3.2,4.5-2.8c2,0.5,3.2,2.5,2.8,4.5l0,0l-2.9,12
			c1.4,0.4,2.9,0.7,4.4,1.1l1.1-11.7c0.2-2.1,2-3.6,4-3.4c2.1,0.2,3.6,2,3.4,4c0,0,0,0.1,0,0.1l-1.1,12c2.6,0.2,5.3,0.3,7.9,0.2
			l-2.3-12.9c-0.4-2,1-4,3-4.3c2-0.4,4,1,4.3,3l2.4,13.5c2.3-0.4,4.7-0.9,7-1.5l-5.2-12.8c-0.8-1.9,0.1-4.1,2-4.9s4.1,0.1,4.9,2
			c0,0,0,0,0,0.1l5.3,13.1c2-0.8,4-1.8,5.8-2.7l-7.2-12.3c-1-1.8-0.4-4.1,1.3-5.1s4.1-0.4,5.1,1.3l7.1,12.2c1.4-0.9,2.6-1.9,3.7-2.8
			l-7.2-9c-1.3-1.6-1.1-4,0.6-5.3c1.6-1.3,4-1.1,5.3,0.6c0,0,0,0,0,0l6.9,8.7c0.7-0.8,1.4-1.4,1.9-2l-4.8-6.8
			c-0.9-1.3-0.6-3.1,0.7-4.1c1.3-0.9,3.1-0.6,4.1,0.7l6.1,8.7C239.3,207.7,239.3,209,238.5,210.1L238.5,210.1z"/>
		<path class="st1" d="M210.5,136.4L210.5,136.4c-9.2,0-26.3,11.9-26.3,28.7c0,7.5,3.4,15.5,8.8,20.4c4.3,4,10.1,5.8,15.9,5.1
			c22.8-2.2,26.4-14,28-25.9c0.8-5.8-2-13.5-7-19.3C225.1,139.7,218,136.4,210.5,136.4z M210.7,158.1H205v13.2
			c0,2.1-1.7,3.7-3.7,3.7c-2.1,0-3.7-1.7-3.7-3.7v-13.2h-2.6c-1.6,0-2.9-1.3-2.9-2.9s1.3-2.9,2.9-2.9l0,0h15.8
			c1.6,0,2.9,1.3,2.9,2.9S212.3,158.1,210.7,158.1L210.7,158.1z"/>
		<path class="st1" d="M167.2,295.6l-0.3-3.5c-0.4-0.4-0.8-0.9-1.2-1.3c-0.6,1-1.7,1.6-2.8,1.7c-0.1,0-0.2,0-0.3,0
			c-1.9,0-3.6-1.5-3.7-3.4l-0.7-8.4c0-0.1-0.1-0.1-0.1-0.2l0.1,0.8c0.2,2.1-1.3,3.9-3.4,4.1c-0.1,0-0.2,0-0.4,0
			c-1.9,0-3.5-1.5-3.7-3.4l-0.6-5.7c-3.2,3.7-7.6,8.7-11.7,14.1c-15,19.3-13.5,23.9-13.5,24.1c0.1,0.3,0.2,0.6,0.2,0.9
			c1.3,0.9,5.9,1.8,9.7,2.6c8.5,1.8,21,4.4,35.2,11.4l-1.3-31C167.8,297.7,167.3,296.7,167.2,295.6z"/>
		<path class="st1" d="M148.3,190.5c16.6-1.5,28.3-15.2,29.9-27.5c0.8-5.5-2.1-10.2-4.7-13.1c-5.2-6-13.8-10.2-20.8-10.2h-0.1
			c-13,0-22.7,8.5-25.2,21.6c0,0.1,0,0.2,0,0.3c0.4,6.7,0.9,13.2,1.5,19.3c0.8,2,2,3.7,3.6,5.2C136.3,189.6,141.5,191.1,148.3,190.5
			z M156,152.3h15.8c1.6,0,2.9,1.3,2.9,2.9s-1.3,2.9-2.9,2.9H170v13.2c0,2.1-1.7,3.7-3.7,3.7c-2.1,0-3.7-1.7-3.7-3.7v-13.2H156
			c-1.6,0-2.9-1.3-2.9-2.9S154.4,152.3,156,152.3z"/>
		<path class="st2" d="M125.1,361.1c0.1-2.1-1.5-3.8-3.6-3.9c-2.1-0.1-3.8,1.5-3.9,3.6c-0.4,11,0.4,100.6,1.4,127.5
			c2.5,1,5.1,2,7.6,2.9C125.6,463.4,124.7,372.3,125.1,361.1z"/>
		<path class="st2" d="M276.1,362.5c-2.1,0.1-3.6,1.9-3.5,4l4.2,121.7c2.5-0.9,4.9-1.8,7.3-2.7L280.1,366
			C279.9,363.9,278.2,362.3,276.1,362.5C276.1,362.5,276.1,362.5,276.1,362.5z"/>
		<path class="st2" d="M257.6,251.2l0.4-5.4c0.5,0.3,1.1,0.5,1.7,0.6c0.1,0,0.2,0,0.3,0c1.9,0,3.5-1.5,3.7-3.4l0.8-9.1
			c0.5,0.3,1.1,0.4,1.6,0.4h0.1c2,0,3.7-1.6,3.7-3.7l0.5-19.9c0.1,0,0.3,0,0.4,0c11.9,0,18.2-6.1,21-10c2.2-3.1,3-8.4,2-13.7
			c-1-5.2-3.6-9.5-7.1-11.8c-4.9-3.1-11-3.8-14.8-3.9l0-0.5c2.9-3.4,10.1-10.2,20.1-11c1.4-0.1,2.4-1.3,2.3-2.7
			c-0.1-1.4-1.3-2.4-2.7-2.3c-6.6,0.7-12.9,3.3-18.1,7.5c2.1-5.3,5.5-11.5,11-15.1c1.2-0.8,1.5-2.3,0.7-3.5
			c-0.8-1.2-2.3-1.5-3.5-0.7c0,0,0,0,0,0c-4,2.8-7.3,6.5-9.7,10.8c0-10-0.1-19.9-0.3-29c1.3,0.6,2.6,1.1,4,1.4
			c3.3,0.8,6.7,1.2,10.2,1.3c10.4,0,17.4-4.8,20.8-14.4c2.8-8,3.9-34.6-10.4-47c-10.3-8.9-22.9-10.3-36.3-4.4
			c-1.6-1.7-3.3-3.3-5.2-4.8c-13.6-10.9-33.7-16.5-59.9-16.6h-0.5c-24.1,0-43.5,5.9-57.8,17.5c-11.3,9.2-16.8,20.4-18,27.2
			c-1.6,8.9-1.1,35.4,1.4,74.7c-2.8-4.7-6.8-9.4-12.4-12.4c-1.2-0.7-2.7-0.2-3.4,1c-0.7,1.2-0.2,2.7,1,3.4c0,0,0,0,0.1,0
			c5,2.6,8.6,7.2,11,11.5c-3.8-3-8.3-5-13-5.7c-1.4-0.2-2.6,0.8-2.8,2.1c-0.2,1.4,0.8,2.6,2.1,2.8c0,0,0,0,0,0
			c6.6,0.9,12.2,5.6,15.4,9c-3.4,0.5-7.9,1.6-11.5,4.3c-3.1,2.3-5.3,6.4-5.9,11.3c-0.6,5,0.4,9.8,2.7,12.5c2.6,3.2,8.2,8,17.9,8
			c0.6,0,1.3,0,2-0.1l3.8,41.5c0.2,1.9,1.8,3.4,3.7,3.4c0.1,0,0.2,0,0.3,0c0.7-0.1,1.4-0.4,2-0.8l1.8,13.5c0.1,1,0.7,2,1.6,2.6
			c-9.2,7.3-22.4,18.4-30.1,27.2c-3.9,4.6-7.4,9.4-10.5,14.6c0.7-25.7-0.9-27.2-2-28.2c-1.1-0.8-2.4-1.4-3.8-1.5
			c0.8-11.8,3-52.1-3.5-61.3c-2.1-3-4.4-4.2-6.8-3.6c-4.9,1.3-6.5,9.6-8,25.7l0,0.4c-0.1,0.9-0.2,2-0.3,3.1
			c-0.4,5.1-1.5,16.7-3.1,22.5c-0.8-4.1-1.7-10.6-2.5-16.2c-0.5-4-1.1-8.2-1.8-12.5c-0.6-4-2.5-13.6-7.3-15.7
			c-1.5-0.7-3.3-0.6-4.6,0.3c-1.1,0.7-3.8,2.4-4,18.7c-0.1,10.6,0.7,21.2,2.4,31.6c-19,14.2-18.1,18.4-17.7,19.9
			c0.2,0.9,0.5,3.3,0.9,6c1.9,14.1,3.3,21.8,6,24.5c3,3,8.8,3.4,12.5,3.2l0.3,3.5c-4.4,1.1-8.6,2.6-12.8,4.4
			c-3.3,1.4-3.3,3.7-3.2,4.6c0.1,0.6,0.3,1.8,2.1,3c0.9,6.1,2.5,129.9,4.6,144.8c2.2,2.3,4.5,4.5,6.8,6.6c-2.2-15.9-4-141.2-5.1-149
			c3.6,0.8,7.2,1.3,10.9,1.6c0.2,0,0.3,0,0.4,0c3.7,0.3,7.5,0.5,11.3,0.5c8.3,0.1,16.7-0.8,24.8-2.6c0.2,0,0.4-0.1,0.6-0.1
			c2.8-0.6,5.5-1.4,8.2-2.4c1.7-0.6,3.3-1.2,4.7-1.9l5.5,145.8c2,0.9,4,1.8,6,2.6l-6-153c0.3-0.7,0.4-1.5,0.3-2.2
			c-0.4-2.7-2.8-5.3-16.6-6.3c0-0.5,0.1-1.1,0.1-1.6c1-0.4,1.7-1.1,2.1-2c3.8-8.2,8.7-15.9,14.6-22.8c7.8-9,22.2-20.8,31.2-27.9
			l0.1,1.1c-3.1,3.5-6.9,8-10.6,12.8c-15,19.3-16,26.7-14.8,30.8c0.5,5.7,6.9,7,15.6,8.8c9.3,1.9,22.1,4.6,36.8,12.5
			c0.1,0.1,0.2,0.1,0.3,0.2l4.3,149.6c2.5,0.3,5,0.6,7.5,0.8l-4.9-164c4.7,8.2,12,14.7,23,14.7c0.6,0,1.3,0,1.9-0.1
			c9.4-0.6,15.3-7.1,19.1-15.7c0.4,33.1,1.1,126.8,2.3,165c2.5-0.2,5-0.5,7.5-0.8c-1-32.8-1.7-119.2-2.1-150.3
			c1.2,1.1,2.9,1.3,4.3,0.6c14.7-7.9,27.5-10.5,36.8-12.5c8.7-1.8,15.1-3.1,15.6-8.8c1.2-4.1,0.2-11.5-14.8-30.8
			c-8.3-10.6-16.9-19.8-17.2-20.2c-0.6-0.6-1.3-1-2.1-1.1l0.2-5c0.4,0.2,0.9,0.3,1.4,0.4c0.1,0,0.2,0,0.3,0c1.1,0,2.1-0.5,2.8-1.2
			c9.2,1.9,37,9.6,59.6,35.8c15.3,17.7,21.8,157.1,24.3,196.8c2.4-1.9,4.8-3.8,7.2-5.8c-2.9-39.3-9.9-177.5-25.8-195.9
			C297.1,261.3,267.7,253.2,257.6,251.2z M270.8,195.4c0.4-6,0.7-12.4,0.9-19c3.2,0.1,8.4,0.6,12.3,3.1c2.4,1.5,4.2,4.6,4.9,8.5
			c0.8,3.9,0.3,7.8-1.1,9.8c-2.1,2.9-6.7,7.4-15.4,7.9l12.6-15.5c0.9-1.1,0.7-2.6-0.4-3.5c-1.1-0.9-2.6-0.7-3.5,0.4l-10.4,12.8
			L270.8,195.4z M110.2,189l10.7,12.6c0.4,0.5,1,0.8,1.7,0.9l0,0.1c-8.6,0.5-13.4-3.5-15.5-6.1c-1.4-1.7-2-5.3-1.6-8.7
			c0.4-3.5,1.9-6.4,3.9-7.9c3.5-2.6,8.6-3.3,11.4-3.6l2.1,20l-8.9-10.4c-0.9-1-2.5-1.2-3.5-0.3C109.4,186.4,109.3,188,110.2,189
			L110.2,189L110.2,189z M43.9,319c-1.8-2.1-3.7-16-4.4-21.2c-0.4-2.8-0.6-4.9-0.9-6.1c0.6-1.4,3.7-4.6,8-8.3
			c-2.7,10.1-2.6,28,1.8,36.7c0.1,0.1,0.1,0.2,0.2,0.3C46.5,320.3,44.7,319.8,43.9,319z M55.1,228.3c1,1.6,2.4,5.1,3.2,10.4
			c0.6,4.2,1.2,8.3,1.7,12.4c2.4,17.3,3.2,21.9,5.6,23.6c0.8,0.6,1.7,0.8,2.7,0.6c5.4-0.9,7.1-10.3,8.9-30.9c0.1-1.1,0.2-2.1,0.3-3
			l0-0.4c1-11.1,2.2-17.8,3.5-20.1c0.2,0.3,0.4,0.5,0.6,0.8c4.3,6.2,3.8,37.5,2.4,57.7c-5.9,0.2-11.8,1-17.6,2.3
			c-0.1-0.3-0.2-0.7-0.3-1c-1.9-5.3-5.1-6.8-7.5-7.1c-0.7-0.1-1.4-0.1-2,0C53.1,252.3,53.6,233.7,55.1,228.3L55.1,228.3z
			 M45.3,338.2c2.4-0.9,4.9-1.7,7.5-2.5l0.2,3.9C50.5,339.3,47.9,338.8,45.3,338.2z M56.6,320.3c-1.3,0-2.4-1.5-3-2.8
			c-4.6-9.1-3.3-31.6,0.1-36.3c1-1.1,2.3-1.7,3.7-1.9c0.1,0,0.2,0,0.4,0c1.1,0.2,2.1,1.3,2.8,3.3c0.1,0.3,0.1,0.5,0.2,0.8
			c-0.1,0.1-0.3,0.2-0.4,0.2c-0.1,0.1-0.3,0.2-0.4,0.3c-0.1,0.1-0.3,0.2-0.4,0.3s-0.3,0.2-0.4,0.3s-0.2,0.2-0.4,0.4
			c-0.1,0.1-0.2,0.2-0.3,0.3c-0.1,0.1-0.2,0.3-0.3,0.4c-0.1,0.1-0.2,0.2-0.3,0.4c-0.1,0.1-0.2,0.3-0.3,0.5c-0.1,0.1-0.1,0.2-0.2,0.4
			c-0.1,0.2-0.1,0.3-0.2,0.5c0,0.1-0.1,0.2-0.1,0.4c-0.1,0.2-0.1,0.4-0.1,0.6c0,0.1,0,0.2-0.1,0.3c0,0.3-0.1,0.6,0,0.9
			c0,0.1,0,0.2,0,0.3c0,0,0,0.1,0,0.1c0,0.1,0,0.1,0,0.2c0,0,0,0.1,0,0.2c0,0.1,0,0.2,0,0.2c0,0.1,0,0.1,0,0.2c0,0.1,0,0.2,0.1,0.2
			c0,0.1,0,0.1,0.1,0.2c0,0.1,0.1,0.2,0.1,0.3c0,0.1,0,0.1,0.1,0.2c0,0.1,0.1,0.2,0.1,0.3c0,0.1,0.1,0.1,0.1,0.2
			c0,0.1,0.1,0.2,0.1,0.3c0,0.1,0.1,0.2,0.1,0.2c0.1,0.1,0.1,0.2,0.2,0.3c0,0.1,0.1,0.1,0.1,0.2c0.1,0.2,0.2,0.3,0.4,0.5
			c0.1,0.1,0.1,0.2,0.2,0.2c0.1,0.1,0.2,0.2,0.3,0.3c0.1,0.1,0.2,0.2,0.2,0.3c0.1,0.1,0.2,0.2,0.3,0.3c0.1,0.1,0.2,0.2,0.3,0.3
			c0.1,0.1,0.2,0.2,0.3,0.3c0.1,0.1,0.2,0.2,0.3,0.3c0.1,0.1,0.2,0.2,0.4,0.3c0.1,0.1,0.2,0.2,0.4,0.3s0.3,0.2,0.4,0.3
			c0.1,0.1,0.3,0.2,0.4,0.2c0,0,0.1,0.1,0.1,0.1c-0.1,1.7-0.1,3.2-0.1,4.7c-0.2,7.2-0.3,12.3-1.8,15.8
			C59.7,318.7,58.1,320.2,56.6,320.3L56.6,320.3z M89,328.8C89,328.8,89,328.8,89,328.8c0,0.1,0,0.2,0,0.3c-0.1,1.9-0.2,6.3-0.2,9.5
			c-9.8,1.8-19.7,2.4-29.6,1.7L58.1,326c3.6-0.7,6.4-3.6,7.6-6.3l0,0c2-4.5,2.1-10.2,2.3-18c0-0.9,0-1.8,0.1-2.7
			c3.1,0.7,6.2,1.1,9.4,1.3c1.6,0.1,3-1.2,3-2.8s-1.2-3-2.8-3l0,0c-4.7-0.2-8.6-0.9-11.3-2.1c-2.6-1.1-3.6-2.3-3.6-2.9
			c0-0.3,0.4-0.6,0.8-0.8c0.1-0.1,0.3-0.1,0.5-0.2h0c0.1,0,0.2-0.1,0.4-0.1c0.1-0.1,0.3-0.1,0.5-0.2h0c7.1-2.2,20.9-3.4,24.4-2.6
			C90.1,288.7,90.4,301.6,89,328.8L89,328.8z M104.4,333.4c-1.7,0.9-3.5,1.7-5.4,2.3c-1.3,0.5-2.7,0.9-4.1,1.3
			c-0.1-2.2-0.1-3.9-0.1-5.1C98.1,332.2,101.3,332.6,104.4,333.4z M126.7,147.8c-2.5-43.5-1.5-57-0.8-61.1c1.6-3,5.1-7.1,12.9-6.8
			c8.9,0.3,13.4,5.1,17.4,9.4c1.4,1.6,2.9,3.1,4.6,4.4c4,3,9.2,3,15.8,0.1c1.8-1,3.5-2.1,5.2-3.3c7.1-4.8,18.9-12.9,32.4-16.2
			c13.1-3.2,29.2-4.4,33.5-1.1c4.4,3.4,10.3,15.2,8.8,29.5c-0.8,7.2-3.4,10.7-5.7,13.8c-2.2,3-4.1,5.5-3.5,10.2
			c0.7,5.5,8,20.9,13.9,32.5l-18.5,1c-0.9-7-3.8-13.5-8.4-18.7c-2.2-2.6-4.8-4.8-7.7-6.6c0.2-0.2,0.4-0.5,0.5-0.7
			c1-1.8,0.3-4.1-1.5-5.1c0,0,0,0,0,0c-8.8-5-19.6-5.2-28.6-0.6c-1.8,1-2.4,3.3-1.4,5.1c0,0,0,0,0,0c0.3,0.5,0.7,0.9,1.2,1.2
			c-6.5,3.9-11.7,9.6-15.1,16.3c-1-1.9-2.2-3.7-3.7-5.3c-3.6-4.1-8.1-7.3-13.1-9.5c1.7-1.1,2.3-3.4,1.1-5.2c-0.4-0.6-1-1.1-1.7-1.4
			c-9.3-4.2-20-3.4-28.6,2c-1.7,1.2-2.1,3.5-0.9,5.2c0.3,0.5,0.8,0.9,1.3,1.2C132.4,140.8,129.2,144,126.7,147.8z M236.9,164.7
			c-1.6,11.9-5.2,23.7-28,25.9c-5.8,0.7-11.6-1.2-15.9-5.1c-5.3-4.8-8.8-12.8-8.8-20.4c0-16.9,17-28.7,26.2-28.7h0
			c7.5,0,14.6,3.3,19.4,9.1C234.9,151.2,237.7,158.9,236.9,164.7L236.9,164.7z M127.6,161.6c0-0.1,0-0.2,0-0.3
			c2.5-13.1,12.2-21.6,25.2-21.6h0.1c7,0,15.6,4.2,20.8,10.2c2.5,2.9,5.4,7.6,4.7,13.1c-1.7,12.3-13.3,26-29.9,27.5
			c-6.8,0.6-12-0.9-15.7-4.4c-1.5-1.5-2.7-3.3-3.6-5.2C128.5,174.7,128,168.3,127.6,161.6L127.6,161.6z M134.8,318
			c-3.8-0.8-8.4-1.7-9.7-2.6c0-0.3-0.1-0.6-0.2-0.9c-0.1-0.2-1.6-4.8,13.5-24.1c4.2-5.4,8.5-10.4,11.7-14.1l0.6,5.7
			c0.2,1.9,1.8,3.4,3.7,3.4c0.1,0,0.2,0,0.4,0c2.1-0.2,3.6-2,3.4-4.1c0,0,0,0,0,0l-0.1-0.8c0,0.1,0.1,0.1,0.1,0.2l0.7,8.4
			c0.2,1.9,1.8,3.4,3.7,3.4c0.1,0,0.2,0,0.3,0c1.2-0.1,2.2-0.7,2.8-1.7c0.4,0.4,0.8,0.9,1.2,1.3l0.3,3.5c0.1,1.1,0.7,2.1,1.6,2.7
			l1.3,31C155.8,322.4,143.3,319.8,134.8,318L134.8,318z M201.9,333.2c-9.5,0.6-16.7-4.6-21.4-15.5c-1.8-4.3-3.1-8.8-3.8-13.4
			c0.6,0.3,1.2,0.5,1.8,0.5c1.5,5.2,3.9,10.4,7.6,14.2c3.6,3.7,8.5,5.7,13.6,5.6h0.3c4.1-0.1,8.1-1.8,10.8-4.9
			c5.1-5.3,7.9-14.5,9.4-23.4c0.3,0.2,0.6,0.4,0.9,0.5c0,1,0,2.1,0,3.2C219.3,315.8,214.2,332.4,201.9,333.2L201.9,333.2z
			 M195.7,300.9c0.3-0.1,0.6-0.1,1-0.2c0.4,2.2,2.2,3.8,4.4,3.8h0.1c2.5,0,4.5-2,4.6-4.5l0-1.5c0.4-0.1,0.8-0.2,1.1-0.3
			c0.4,2,2.2,3.5,4.3,3.6c0.1,0,0.1,0,0.2,0c0.6,0,1.2-0.1,1.8-0.4c-1.4,5.7-3.5,11-6.6,14.2c-1.7,1.9-4.1,3.1-6.7,3.1
			c-3.6,0.2-7.1-1.3-9.6-3.9c-3.4-3.4-5.4-8.6-6.7-13.6c1,0.1,2,0.2,3,0.2l0,2.3c0.1,2.5,2.1,4.5,4.6,4.5h0.1
			c2.5-0.1,4.5-2.1,4.5-4.7c0,0,0,0,0,0L195.7,300.9z M265,290.4c15,19.3,13.5,23.9,13.5,24.1c-0.1,0.3-0.2,0.6-0.2,0.9
			c-1.3,0.9-5.9,1.8-9.7,2.6c-9.2,1.9-23.1,4.8-38.8,13.2c-0.3,0.2-0.6,0.4-0.8,0.6c-0.2-18.1-0.4-33.3-0.5-42.6
			c0.4-0.2,0.7-0.4,1.1-0.5c0.6,0.5,1.4,0.9,2.3,0.9h0.1c2,0,3.7-1.6,3.7-3.6l0.1-3.7c0.7-1.2,1.6-2.5,2.5-4.2c0.6,1.2,1.9,2,3.3,2
			h0c2.1,0,3.7-1.7,3.7-3.8c0,0,0,0,0,0l0-6.9c0.6,0.6,1.5,0.9,2.3,0.9c0,0,0.1,0,0.1,0c0.1,0,0.2,0,0.3,0c0.1,0.1,0.1,0.2,0.2,0.3
			C248.3,270.8,257,280,265,290.4L265,290.4z M253.2,210.2l-0.9,12.3c-1.3-1.6-3.6-1.9-5.2-0.6c-0.9,0.7-1.4,1.7-1.4,2.8l-0.3,8.3
			c0,0-0.1,0.1-0.1,0.1v-1c0-2.1-1.7-3.7-3.7-3.7h0c-2.1,0-3.7,1.7-3.7,3.8l0,8.4c-0.2,0.2-0.4,0.3-0.5,0.5c-0.6-2-2.7-3-4.7-2.4
			c-1.5,0.5-2.5,1.8-2.6,3.4l-0.2,5.6c-0.4,0.4-0.9,0.7-1.4,1.1l0.1-3c0-2.5-2-4.6-4.5-4.7s-4.6,2-4.7,4.5l-0.2,10.1
			c-0.4,0.3-0.9,0.6-1.4,0.9l0-0.4c0.1-2.5-1.9-4.7-4.4-4.8c-2.5-0.1-4.7,1.9-4.8,4.4l-0.2,6.2c-0.6,0.3-1.2,0.6-1.8,0.8l0.1-6
			c0-2.5-2-4.6-4.5-4.7h-0.1c-2.5,0-4.5,2-4.6,4.5l-0.2,9.3c-0.8,0.2-1.5,0.3-2.3,0.4l-0.1-3.7c-0.1-2.5-2.1-4.5-4.7-4.5
			s-4.5,2.1-4.5,4.7l0.1,3.5c-0.9-0.1-1.7-0.2-2.6-0.3l0-8.4c0-2.5-2.1-4.6-4.6-4.6c-2.5,0-4.6,2.1-4.6,4.6l0,6.2
			c-0.7-0.2-1.5-0.5-2.2-0.7l-0.4-4.7c-0.2-2.1-2-3.6-4-3.4c-2.1,0.2-3.6,2-3.4,4l0,0.5c-0.1,0-0.2-0.1-0.3-0.2l-1-12.3
			c-0.2-2.1-2-3.6-4-3.4c-2.1,0.2-3.6,2-3.4,4l0,0l0.5,6.4c-0.2-0.1-0.3-0.3-0.5-0.4l-1.2-11.9c-0.2-2.1-2-3.6-4.1-3.4
			c-1.8,0.2-3.3,1.7-3.4,3.5l-1.6-12.6c-0.3-2-2.2-3.5-4.2-3.2c-2,0.3-3.5,2.1-3.2,4.1l0.9,7.4c-0.1-0.2-0.1-0.5-0.2-0.7l-2.6-19.8
			c-0.2-1.4-1.2-2.6-2.5-3c-1.2-6.9-2.3-14.3-3.2-22.4c4,3.1,9.2,4.8,15.3,4.8c1.1,0,2.2-0.1,3.4-0.2c11-1,21-6.5,27.7-15.3
			c-1,5.2-2.3,8.9-3.4,9.6c-2.8,0.2-5.4,1.5-7.2,3.7c-1.6,1.8-3.3,5.1-2.5,10c0.6,3.9,3.9,8,15.4,8c2.7,0,5.4-0.2,8-0.6
			c1.6-0.2,2.7-1.7,2.5-3.3c-0.2-1.6-1.7-2.7-3.3-2.5c-11.2,1.4-16.6-0.3-16.9-2.6c-0.4-1.9,0-3.8,1.2-5.3c0.7-0.9,1.7-1.5,2.9-1.6
			c4.4,0,7.3-4.8,9.2-15.3c1.7,3.3,3.9,6.2,6.6,8.7c4.8,4.4,11.1,6.8,17.6,6.8c0.9,0,1.9,0,2.8-0.1c24.4-2.3,30.5-14.8,32.9-28.5
			l22.1-1.2c-0.1,3.8-0.1,7.5-0.3,11.2c-0.3,0.5-0.4,1.1-0.4,1.6l-0.2,10.6c-1.5,0.4-2.6,1.7-2.7,3.3l-1.3,14.3
			c-0.6-0.5-1.4-0.9-2.2-0.9C255.2,206.6,253.4,208.2,253.2,210.2L253.2,210.2z"/>
		<path class="st2" d="M156,158.1h6.5v13.2c0,2.1,1.7,3.7,3.7,3.7c2.1,0,3.7-1.7,3.7-3.7v-13.2h1.8c1.6,0,2.9-1.3,2.9-2.9
			s-1.3-2.9-2.9-2.9H156c-1.6,0-2.9,1.3-2.9,2.9S154.4,158.1,156,158.1L156,158.1z"/>
		<path class="st2" d="M210.7,152.3h-15.8c-1.6,0-2.9,1.3-2.9,2.9s1.3,2.9,2.9,2.9l0,0h2.6v13.2c0,2.1,1.7,3.7,3.7,3.7
			c2.1,0,3.7-1.7,3.7-3.7v-13.2h5.7c1.6,0,2.9-1.3,2.9-2.9S212.3,152.3,210.7,152.3L210.7,152.3z"/>
		<path class="st2" d="M232.5,198c-0.9-1.3-2.7-1.6-4.1-0.7s-1.6,2.7-0.7,4.1l4.8,6.8c-0.5,0.5-1.1,1.2-1.9,2l-6.9-8.7
			c-1.3-1.6-3.6-1.9-5.3-0.6c-1.6,1.3-1.9,3.6-0.6,5.3c0,0,0,0,0,0l7.2,9c-1.1,0.9-2.4,1.8-3.7,2.8l-7.1-12.2
			c-1-1.8-3.3-2.4-5.1-1.3c-1.8,1-2.4,3.3-1.3,5.1l0,0l7.2,12.3c-1.8,1-3.7,1.9-5.8,2.7l-5.3-13.1c-0.8-1.9-2.9-2.9-4.9-2.1
			c-1.9,0.8-2.9,2.9-2.1,4.9c0,0,0,0,0,0.1l5.2,12.8c-2.3,0.6-4.6,1.2-7,1.5l-2.4-13.5c-0.4-2-2.3-3.4-4.3-3s-3.4,2.3-3,4.3l0,0
			l2.3,12.9c-2.6,0.1-5.3,0-7.9-0.2l1.1-12c0.2-2.1-1.3-3.9-3.3-4.1c-2.1-0.2-3.9,1.3-4.1,3.3c0,0,0,0.1,0,0.1l-1.1,11.7
			c-1.5-0.3-3-0.7-4.4-1.1l2.9-12c0.5-2-0.7-4-2.8-4.5c-2-0.5-4,0.7-4.5,2.8l0,0l-2.7,11.3c-1.4-0.6-2.8-1.3-4.1-2l4-11.8
			c0.7-2-0.3-4.1-2.3-4.8c-2-0.7-4.1,0.3-4.8,2.3c0,0,0,0,0,0l-3.5,10.1c-0.8-0.6-1.5-1.1-2.1-1.7l3.9-10.2c0.7-1.9-0.2-4.1-2.2-4.8
			c-1.9-0.7-4.1,0.2-4.8,2.2l-2.7,7.1c-0.5-0.6-0.8-1-1.1-1.4l1.9-7c0.4-1.6-0.5-3.2-2-3.6c-1.6-0.4-3.2,0.5-3.6,2l-2.3,8.3
			c-0.2,0.8-0.1,1.6,0.3,2.3c1.6,2.3,3.4,4.5,5.4,6.5c6.7,6.7,18.7,15.1,37.4,16.9c2.4,0.2,4.8,0.3,7.1,0.3c33.9,0,52.3-24,53.1-25
			c0.8-1,0.8-2.4,0.1-3.4L232.5,198z"/>
	</g>
</g>
</svg>
