<svg xmlns="http://www.w3.org/2000/svg" viewBox="0 0 378.007 482.009"><defs><style>.a2e5dcfc-8a2b-4802-bd74-7050a6aa82d1{fill:none;}.fad56955-8d78-48ee-977f-a6a09bee092e{fill:#8799ec;}</style></defs><g id="b2dbcafd-bb3c-419b-b069-7f6bd050d8f7" data-name="Calque 2"><g id="bccc94a5-c121-4695-b949-85926d0f4efc" data-name="Calque 2"><path class="a2e5dcfc-8a2b-4802-bd74-7050a6aa82d1" d="M31.139,280.056c2.868.386,6.765,2.189,9.045,8.59a12.078,12.078,0,0,1,.333,1.185A123,123,0,0,1,61.7,287.1c1.645-24.2,2.22-61.9-2.923-69.311a10.749,10.749,0,0,0-.776-1c-1.56,2.691-2.976,10.791-4.217,24.136l-.047.5c-.1,1.106-.209,2.326-.323,3.629-2.172,24.8-4.227,36.052-10.66,37.156a4.191,4.191,0,0,1-3.2-.779c-2.842-2.09-3.869-7.592-6.693-28.377-.656-4.828-1.334-9.821-2.1-14.861-.962-6.348-2.613-10.544-3.8-12.456-1.812,6.546-2.466,28.845,1.729,54.3A10.226,10.226,0,0,1,31.139,280.056Z"/><path class="a2e5dcfc-8a2b-4802-bd74-7050a6aa82d1" d="M15.184,357.8a72.336,72.336,0,0,0,9.278,1.7l-.213-4.64C21.09,355.723,18.085,356.7,15.184,357.8Z"/><path class="a2e5dcfc-8a2b-4802-bd74-7050a6aa82d1" d="M97.63,174.632l10.7,12.53-2.557-24.043c-3.411.259-9.442,1.163-13.694,4.282-2.437,1.787-4.143,5.238-4.68,9.469-.529,4.173.25,8.492,1.894,10.5,2.6,3.174,8.314,7.984,18.68,7.389l-.01-.112a2.97,2.97,0,0,1-2-1.023l-12.891-15.1a3,3,0,0,1,4.564-3.895Z"/><path class="a2e5dcfc-8a2b-4802-bd74-7050a6aa82d1" d="M16.73,291.9c-5.193,4.447-8.98,8.3-9.664,10.012.3,1.512.637,4.026,1.083,7.38.838,6.283,3.062,22.972,5.254,25.45.965.969,3.208,1.489,5.715,1.7-.074-.138-.15-.264-.222-.407C13.586,325.555,13.453,304.049,16.73,291.9Z"/><path class="a2e5dcfc-8a2b-4802-bd74-7050a6aa82d1" d="M124.39,117.7a4.5,4.5,0,0,1-.548-7.665,36.307,36.307,0,0,1,34.308-2.458,4.5,4.5,0,0,1,.618,7.918,45.077,45.077,0,0,1,15.8,11.43,33.781,33.781,0,0,1,4.4,6.329,48.382,48.382,0,0,1,18.147-19.607,4.444,4.444,0,0,1-1.414-1.484,4.5,4.5,0,0,1,1.656-6.145,36.307,36.307,0,0,1,34.389.738,4.5,4.5,0,0,1,1.763,6.115,4.552,4.552,0,0,1-.617.848,39.9,39.9,0,0,1,9.286,7.878,41.677,41.677,0,0,1,10.148,22.527l22.171-1.2c-7.066-13.979-15.87-32.436-16.662-39.092-.675-5.669,1.612-8.746,4.259-12.309,2.769-3.727,5.909-7.952,6.827-16.61,1.827-17.228-5.229-31.365-10.574-35.494-5.16-3.988-24.512-2.443-40.24,1.354-16.334,3.942-30.516,13.655-38.988,19.458a53.4,53.4,0,0,1-6.232,3.961c-7.923,3.522-14.137,3.486-19-.109a42.15,42.15,0,0,1-5.55-5.328c-4.754-5.127-10.143-10.938-20.889-11.3-9.328-.315-13.6,4.585-15.481,8.182-.79,4.864-1.974,21.114,1,73.362A36.454,36.454,0,0,1,124.39,117.7Z"/><path class="a2e5dcfc-8a2b-4802-bd74-7050a6aa82d1" d="M38.8,297.469H38.8c-.233.073-.439.141-.621.2s-.335.119-.47.171l-.007,0c-.275.106-.463.191-.59.254-.444.219-.941.6-.929.973.021.688,1.188,2.188,4.317,3.5,3.27,1.383,7.967,2.25,13.594,2.513a3.5,3.5,0,0,1-.328,6.993A58.236,58.236,0,0,1,42.5,310.557c-.028,1.114-.054,2.2-.078,3.245-.217,9.414-.373,16.217-2.788,21.674h0c-1.452,3.279-4.846,6.821-9.149,7.6l1.346,17.108a140.719,140.719,0,0,0,35.6-2.01c.059-3.819.154-9.144.249-11.391,0-.082.006-.164.011-.243,0-.025,0-.049,0-.075,1.588-32.692,1.255-48.173.43-52.092C63.911,293.351,47.3,294.807,38.8,297.469Z"/><path class="a2e5dcfc-8a2b-4802-bd74-7050a6aa82d1" d="M33.233,332.643c1.851-4.181,1.994-10.4,2.192-19,.041-1.794.085-3.686.146-5.683-.056-.031-.1-.064-.158-.1-.171-.1-.331-.194-.493-.292-.181-.11-.361-.22-.531-.332s-.307-.206-.454-.31-.308-.221-.454-.332-.276-.212-.407-.318-.267-.225-.394-.337-.242-.212-.354-.319-.234-.23-.347-.346-.206-.207-.3-.311c-.113-.124-.214-.247-.316-.37-.079-.094-.163-.189-.236-.282-.164-.21-.314-.419-.452-.625-.054-.082-.1-.161-.149-.242-.083-.132-.167-.265-.24-.395-.052-.092-.1-.182-.143-.273-.06-.116-.121-.232-.174-.345-.042-.091-.079-.179-.118-.268-.047-.111-.093-.22-.134-.327-.033-.087-.063-.171-.092-.255-.036-.105-.071-.209-.1-.311-.024-.08-.047-.159-.068-.237-.027-.1-.052-.2-.074-.293-.017-.073-.034-.145-.048-.215-.02-.1-.036-.189-.051-.28-.01-.062-.022-.125-.03-.184-.014-.1-.023-.185-.032-.274,0-.047-.012-.1-.016-.141-.01-.128-.017-.249-.021-.358a7.379,7.379,0,0,1,.053-1.135c.016-.124.052-.243.073-.365.044-.247.083-.5.151-.735.04-.145.1-.283.153-.425.073-.211.139-.424.231-.628.068-.149.155-.289.232-.434.1-.188.192-.379.307-.559.093-.146.205-.281.308-.422.123-.168.239-.339.375-.5.118-.138.255-.264.383-.4.144-.148.281-.3.437-.44s.3-.24.454-.36.321-.26.495-.379.344-.209.518-.312c.155-.091.3-.193.461-.277a9.352,9.352,0,0,0-.232-.953c-.87-2.44-2-3.786-3.361-3.975a3.148,3.148,0,0,0-.435-.03,7,7,0,0,0-4.5,2.228c-4.124,5.729-5.7,32.72-.148,43.674.784,1.548,2.047,3.381,3.622,3.381h.053C30.523,336.2,32.479,334.348,33.233,332.643Z"/><path class="a2e5dcfc-8a2b-4802-bd74-7050a6aa82d1" d="M74.8,356.429c1.69-.481,3.336-1.012,4.923-1.59a45.028,45.028,0,0,0,6.481-2.823,60.471,60.471,0,0,0-11.52-1.667C74.7,351.787,74.738,353.751,74.8,356.429Z"/><path class="a2e5dcfc-8a2b-4802-bd74-7050a6aa82d1" d="M165.043,357.329c-17.682-9.5-33-12.666-44.192-14.981-10.5-2.173-18.2-3.765-18.766-10.588-1.456-4.9-.2-13.812,17.787-36.962,4.479-5.765,9.037-11.171,12.737-15.417l-.166-1.343c-10.725,8.462-28.092,22.739-37.438,33.5a118.787,118.787,0,0,0-17.52,27.425,4.473,4.473,0,0,1-2.548,2.427c-.029.643-.059,1.3-.09,1.957,16.578,1.125,19.427,4.26,19.925,7.514a4.908,4.908,0,0,1-.335,2.695L101.61,461.59q1.091.452,2.186.894c-1.3-32.351-2.271-64.222-1.741-77.474a4.5,4.5,0,0,1,8.993.36c-.535,13.384.54,47.1,1.911,80.637A266.51,266.51,0,0,0,170.616,479.9l-5.172-122.387C165.309,357.456,165.174,357.4,165.043,357.329Z"/><path class="a2e5dcfc-8a2b-4802-bd74-7050a6aa82d1" d="M82.117,361.417a83.45,83.45,0,0,1-9.844,2.885c-.225.062-.458.115-.683.157a138.15,138.15,0,0,1-29.8,3.068c-4.525,0-9.067-.194-13.519-.591-.134-.008-.316-.023-.506-.047a94.269,94.269,0,0,1-13.1-1.97c1.334,9.444,3.569,25.4,6.172,44.5a269.681,269.681,0,0,0,73.552,49.054l-6.6-99.4C86.046,359.92,84.11,360.69,82.117,361.417Z"/><path class="a2e5dcfc-8a2b-4802-bd74-7050a6aa82d1" d="M302.719,175.684a3,3,0,0,1,.433,4.22l-15.2,18.678c10.452-.577,16-5.954,18.522-9.478,1.724-2.41,2.275-7.166,1.371-11.835s-3.059-8.383-5.917-10.206c-4.673-2.979-10.9-3.646-14.754-3.742-.228,7.875-.565,15.565-1.044,22.828l-.122,5.315L298.5,176.116A3,3,0,0,1,302.719,175.684Z"/><path class="a2e5dcfc-8a2b-4802-bd74-7050a6aa82d1" d="M268.545,262.107a4.477,4.477,0,0,1-3.32,1.495c-.116,0-.233,0-.35-.013a4.475,4.475,0,0,1-1.656-.462l-.233,6.033a4.466,4.466,0,0,1,2.54,1.341c.435.464,10.776,11.507,20.714,24.3,17.987,23.15,19.242,32.058,17.786,36.962-.568,6.823-8.265,8.415-18.766,10.588-11.187,2.315-26.509,5.485-44.191,14.981a4.476,4.476,0,0,1-5.177-.667c.512,37.378,1.318,83.757,2.518,123.2a266.528,266.528,0,0,0,54.91-13.013l-5.052-75.092a4.5,4.5,0,1,1,8.979-.6l4.874,72.435a268.808,268.808,0,0,0,67.271-38.392c-3.05-47.691-10.785-98.728-29.189-120.023C312.993,273.686,279.562,264.408,268.545,262.107Z"/><path class="a2e5dcfc-8a2b-4802-bd74-7050a6aa82d1" d="M203.709,358.823q-1.172.078-2.3.077c-13.213,0-22.024-7.828-27.645-17.684l5.9,139.651c8.123.742,16.345,1.142,24.659,1.142,8.468,0,16.841-.413,25.111-1.183-1.426-45.947-2.291-101.107-2.776-140.836C222.11,350.284,214.945,358.077,203.709,358.823Z"/><path class="a2e5dcfc-8a2b-4802-bd74-7050a6aa82d1" d="M258.714,276.335c-.112.008-.219.032-.332.032-.059,0-.117,0-.176,0a4.456,4.456,0,0,1-2.765-1.115l.03,8.272a4.5,4.5,0,0,1-4.483,4.517h-.017a4.482,4.482,0,0,1-3.961-2.408c-1.078,1.977-2.058,3.639-2.952,5.039l-.171,4.471a4.5,4.5,0,0,1-4.493,4.329l-.175,0a4.453,4.453,0,0,1-2.719-1.073c-.425.217-.846.426-1.268.638.1,11.151.285,29.346.573,51.133a4.425,4.425,0,0,1,1.006-.765c18.834-10.114,35.559-13.575,46.626-15.864,4.53-.938,10.1-2.09,11.655-3.139a4.449,4.449,0,0,1,.262-1.065c.084-.223,1.865-5.723-16.186-28.965-9.681-12.466-20.1-23.595-20.2-23.7S258.8,276.443,258.714,276.335Z"/><path class="a2e5dcfc-8a2b-4802-bd74-7050a6aa82d1" d="M190.568,321.868h-.113a5.5,5.5,0,0,1-5.5-5.388l-.056-2.707c-1.246-.04-2.453-.134-3.625-.274,1.461,6.027,3.9,12.218,8,16.325a15.165,15.165,0,0,0,11.592,4.648,10.967,10.967,0,0,0,8.033-3.732c3.739-3.91,6.27-10.189,7.98-17.091a5.479,5.479,0,0,1-2.124.432c-.075,0-.15,0-.226,0a5.5,5.5,0,0,1-5.143-4.311c-.463.145-.915.275-1.372.412l-.035,1.858a5.5,5.5,0,0,1-5.5,5.393h-.108a5.5,5.5,0,0,1-5.319-4.611c-.394.069-.775.12-1.164.181l.067,3.258A5.5,5.5,0,0,1,190.568,321.868Z"/><path class="a2e5dcfc-8a2b-4802-bd74-7050a6aa82d1" d="M225.253,307.442c-1.83,10.747-5.183,21.74-11.293,28.133a17.865,17.865,0,0,1-13,5.9l-.373,0a22.2,22.2,0,0,1-16.283-6.72c-4.506-4.526-7.345-10.8-9.138-17.039a5.47,5.47,0,0,1-2.15-.629,72.56,72.56,0,0,0,4.565,16.1c5.611,13.132,14.254,19.4,25.665,18.647,14.792-.981,20.92-20.93,23.1-39.906q-.019-2-.038-3.856A5.463,5.463,0,0,1,225.253,307.442Z"/><path class="a2e5dcfc-8a2b-4802-bd74-7050a6aa82d1" d="M273.967,183.838a4.492,4.492,0,0,1,3.3-3.917l.292-12.751a4.381,4.381,0,0,1,.527-1.962c.14-4.428.245-8.938.32-13.485l-26.6,1.444c-2.772,16.462-10.191,31.5-39.476,34.3q-1.713.163-3.385.163a30.749,30.749,0,0,1-21.1-8.131,38.112,38.112,0,0,1-7.962-10.439c-2.292,12.71-5.726,18.423-11.06,18.423a5.277,5.277,0,0,0-3.435,1.944,7.645,7.645,0,0,0-1.433,6.35c.436,2.763,6.9,4.8,20.347,3.117a3.5,3.5,0,1,1,.868,6.946,78.264,78.264,0,0,1-9.65.663c-13.759,0-17.746-4.991-18.479-9.634-.932-5.892,1.131-9.772,3.025-11.99a12.129,12.129,0,0,1,8.6-4.4c1.405-.876,2.91-5.362,4.12-11.552a47.251,47.251,0,0,1-33.247,18.355q-2.073.192-4.05.192c-7.282,0-13.528-1.947-18.345-5.723q1.669,14.549,3.836,26.937a4.487,4.487,0,0,1,3,3.652l3.145,23.824c.081.282.164.553.246.832l-1.093-8.852a4.5,4.5,0,0,1,8.932-1.1l1.874,15.176a4.491,4.491,0,0,1,8.956-.2l1.392,14.326c.195.157.4.319.606.478l-.645-7.728a4.5,4.5,0,0,1,8.969-.748L157.6,263.17c.108.06.211.121.32.181l-.05-.591a4.5,4.5,0,1,1,8.969-.753l.471,5.616q1.267.469,2.591.9l-.036-7.438a5.5,5.5,0,0,1,11-.053l.049,10.109c1.022.155,2.067.284,3.125.4l-.084-4.163a5.5,5.5,0,1,1,11-.224l.09,4.42q1.35-.194,2.718-.487l.215-11.13a5.5,5.5,0,0,1,5.5-5.394h.108a5.5,5.5,0,0,1,5.393,5.6l-.139,7.176q1.058-.476,2.115-.989l.3-7.429a5.5,5.5,0,0,1,10.992.445l-.02.489q.816-.538,1.628-1.09l.215-12.119a5.5,5.5,0,0,1,11,.2L235,250.394q.824-.672,1.633-1.349l.258-6.765a4.491,4.491,0,0,1,8.764-1.209c.219-.2.438-.408.654-.612l-.037-10.035a4.5,4.5,0,0,1,4.483-4.516h.017a4.5,4.5,0,0,1,4.5,4.483l0,1.228c.053-.054.1-.106.154-.16l.385-10a4.483,4.483,0,0,1,7.993-2.63l1.14-14.787a4.513,4.513,0,0,1,4.832-4.141,4.455,4.455,0,0,1,2.623,1.126Zm-26.692,19.977c-.983,1.308-23.136,30.1-63.861,30.1-2.761,0-5.6-.132-8.533-.414-22.516-2.167-36.879-12.214-44.962-20.262a46.853,46.853,0,0,1-6.46-7.751,3.5,3.5,0,0,1-.4-2.76l2.733-9.975a3.5,3.5,0,0,1,6.751,1.851l-2.3,8.4c.341.46.794,1.044,1.351,1.716l3.222-8.481a4.5,4.5,0,1,1,8.413,3.2l-4.649,12.236c.813.682,1.665,1.366,2.576,2.048l4.159-12.173a4.5,4.5,0,1,1,8.516,2.911l-4.863,14.236q2.3,1.24,4.884,2.366l3.292-13.535a4.5,4.5,0,0,1,8.746,2.127l-3.511,14.434c1.687.475,3.441.9,5.269,1.272l1.305-14.049a4.5,4.5,0,1,1,8.961.832l-1.343,14.472a78.427,78.427,0,0,0,9.543.223l-2.794-15.557a4.5,4.5,0,0,1,8.859-1.591l2.92,16.265a74.248,74.248,0,0,0,8.369-1.836l-6.189-15.349a4.5,4.5,0,1,1,8.347-3.365l6.357,15.765c2.454-1.018,4.77-2.122,6.933-3.28l-8.653-14.791a4.5,4.5,0,0,1,7.769-4.545l8.569,14.648c1.624-1.119,3.123-2.238,4.493-3.326l-8.633-10.832a4.5,4.5,0,1,1,7.038-5.609l8.322,10.442c.9-.906,1.654-1.709,2.242-2.363l-5.741-8.228a3.5,3.5,0,1,1,5.741-4.006l7.281,10.435A3.5,3.5,0,0,1,247.275,203.815Z"/><path class="a2e5dcfc-8a2b-4802-bd74-7050a6aa82d1" d="M213.592,115.3h-.025c-11.078.008-31.54,14.252-31.54,34.526,0,9.064,4.133,18.677,10.529,24.49a23.907,23.907,0,0,0,19.11,6.181c27.44-2.626,31.669-16.828,33.648-31.15.964-6.968-2.418-16.27-8.415-23.147A30.41,30.41,0,0,0,213.592,115.3Zm.253,26.122h-6.867v15.86a4.5,4.5,0,0,1-9,0v-15.86H194.8a3.5,3.5,0,0,1,0-7h19.041a3.5,3.5,0,0,1,0,7Z"/><path class="a2e5dcfc-8a2b-4802-bd74-7050a6aa82d1" d="M161.555,306.621l-.354-4.214c-.465-.513-.928-1.031-1.386-1.56a4.478,4.478,0,0,1-3.411,2.081c-.127.011-.254.016-.379.016a4.5,4.5,0,0,1-4.479-4.126L150.7,288.7c-.048-.073-.094-.146-.142-.218l.088.909A4.5,4.5,0,0,1,146.6,294.3a4.35,4.35,0,0,1-.44.022,4.5,4.5,0,0,1-4.474-4.065l-.663-6.819c-3.873,4.393-9.075,10.479-14.083,16.928-18.051,23.242-16.27,28.742-16.185,28.965a4.546,4.546,0,0,1,.262,1.065c1.552,1.049,7.125,2.2,11.654,3.139,10.218,2.113,25.263,5.238,42.334,13.663l-1.577-37.307A4.475,4.475,0,0,1,161.555,306.621Z"/><path class="a2e5dcfc-8a2b-4802-bd74-7050a6aa82d1" d="M138.894,180.314c19.945-1.847,33.96-18.257,35.985-33.055.911-6.651-2.538-12.229-5.591-15.737-6.292-7.229-16.569-12.291-24.992-12.31h-.083c-15.572,0-27.217,10.213-30.27,25.94.008.135.017.266.025.4q.783,12.142,1.823,23.189a20.136,20.136,0,0,0,4.27,6.275C124.433,179.284,130.772,181.069,138.894,180.314Zm9.237-45.893h19.04a3.5,3.5,0,0,1,0,7H165v15.86a4.5,4.5,0,0,1-9,0v-15.86h-7.869a3.5,3.5,0,0,1,0-7Z"/><path class="fad56955-8d78-48ee-977f-a6a09bee092e" d="M111.048,385.37a4.5,4.5,0,0,0-8.993-.36c-.53,13.252.443,45.123,1.741,77.474q4.543,1.841,9.163,3.523C111.588,432.471,110.513,398.754,111.048,385.37Z"/><path class="fad56955-8d78-48ee-977f-a6a09bee092e" d="M292.455,386.96a4.5,4.5,0,0,0-4.187,4.792l5.052,75.092q4.434-1.56,8.8-3.26l-4.874-72.435A4.5,4.5,0,0,0,292.455,386.96Z"/><path class="fad56955-8d78-48ee-977f-a6a09bee092e" d="M270.186,253.235l.5-6.526a4.445,4.445,0,0,0,2.019.715c.139.013.276.019.413.019a4.5,4.5,0,0,0,4.476-4.093l1-10.963a4.459,4.459,0,0,0,1.963.52h.105a4.5,4.5,0,0,0,4.5-4.4l.546-23.871c.153,0,.314.013.465.013,14.273,0,21.82-7.355,25.183-12.059,2.7-3.78,3.615-10.089,2.38-16.466-1.213-6.272-4.341-11.42-8.581-14.123-5.842-3.726-13.246-4.563-17.828-4.683l.012-.574c3.541-4.033,12.111-12.2,24.2-13.265a3,3,0,1,0-.527-5.977,40.677,40.677,0,0,0-21.7,9.066c2.492-6.328,6.635-13.822,13.186-18.19a3,3,0,1,0-3.328-4.992,38.4,38.4,0,0,0-11.6,12.955c.018-12.048-.143-23.919-.388-34.815a23.2,23.2,0,0,0,4.8,1.68,54.86,54.86,0,0,0,12.21,1.526c12.532,0,20.914-5.8,24.985-17.338,3.4-9.634,4.711-41.6-12.486-56.5-12.325-10.682-27.554-12.431-43.622-5.237a60.3,60.3,0,0,0-6.229-5.761C250.518,6.792,226.289.1,194.818,0h-.556c-28.953,0-52.314,7.058-69.43,20.98-13.625,11.082-20.181,24.51-21.655,32.641-1.936,10.676-1.353,42.487,1.632,89.7-3.334-5.589-8.151-11.338-14.945-14.88a3,3,0,1,0-2.773,5.32c6.049,3.154,10.315,8.615,13.209,13.8a34.25,34.25,0,0,0-15.662-6.906,3,3,0,1,0-.817,5.944c7.943,1.091,14.649,6.774,18.544,10.858-4.115.588-9.533,1.952-13.836,5.107-3.759,2.756-6.341,7.7-7.084,13.552-.755,5.951.472,11.72,3.2,15.057,3.167,3.87,9.854,9.665,21.494,9.665.768,0,1.565-.034,2.376-.087l4.545,49.845a4.5,4.5,0,0,0,4.476,4.092c.136,0,.275-.006.414-.019a4.483,4.483,0,0,0,2.412-.978l2.134,16.165a4.468,4.468,0,0,0,1.879,3.076c-11.014,8.774-26.972,22.12-36.166,32.7a122.931,122.931,0,0,0-12.594,17.549c.851-30.847-1.042-32.639-2.369-33.9a8.863,8.863,0,0,0-4.564-1.806c.951-14.224,3.55-62.567-4.161-73.681-2.522-3.637-5.255-5.1-8.118-4.348-5.832,1.532-7.807,11.582-9.6,30.824l-.047.507c-.1,1.118-.211,2.35-.326,3.665-.532,6.074-1.753,20.007-3.68,27.093-1-4.941-2.059-12.74-2.967-19.425-.66-4.854-1.342-9.873-2.112-14.965-.729-4.818-3.041-16.3-8.73-18.883a5.776,5.776,0,0,0-5.587.419c-1.356.868-4.531,2.9-4.781,22.466a234.8,234.8,0,0,0,2.875,38C-1.409,296.178-.244,301.3.145,303.007c.255,1.125.631,3.943,1.066,7.2,2.264,16.991,4,26.209,7.215,29.448,3.622,3.639,10.623,4.044,15.074,3.886l.329,4.178A106.22,106.22,0,0,0,8.5,352.957c-3.984,1.72-4.007,4.458-3.832,5.554.124.779.347,2.133,2.527,3.574,1.038,7.322,3.041,21.545,5.488,39.378q3.993,4.065,8.154,7.96c-2.6-19.1-4.838-35.06-6.172-44.5a94.269,94.269,0,0,0,13.1,1.97c.19.024.372.039.506.047,4.452.4,8.994.592,13.519.591a138.15,138.15,0,0,0,29.8-3.068c.225-.042.458-.1.683-.157a83.45,83.45,0,0,0,9.844-2.885c1.993-.727,3.929-1.5,5.672-2.336l6.6,99.4q3.581,1.611,7.222,3.113L94.437,353.551a4.908,4.908,0,0,0,.335-2.695c-.5-3.254-3.347-6.389-19.925-7.514.031-.66.061-1.314.09-1.957a4.473,4.473,0,0,0,2.548-2.427,118.787,118.787,0,0,1,17.52-27.425c9.346-10.756,26.713-25.033,37.438-33.5l.166,1.343c-3.7,4.246-8.258,9.652-12.737,15.417-17.987,23.15-19.243,32.058-17.787,36.962.568,6.823,8.266,8.415,18.766,10.588,11.188,2.315,26.51,5.485,44.192,14.981.131.07.266.127.4.184L170.616,479.9c3,.377,6.02.69,9.05.967l-5.9-139.651c5.621,9.856,14.432,17.684,27.645,17.684q1.128,0,2.3-.077c11.236-.746,18.4-8.539,22.951-18.833.485,39.729,1.35,94.889,2.776,140.836,3-.28,6-.591,8.974-.969-1.2-39.438-2.006-85.817-2.518-123.2a4.476,4.476,0,0,0,5.177.667c17.682-9.5,33-12.666,44.191-14.981,10.5-2.173,18.2-3.765,18.766-10.588,1.456-4.9.2-13.812-17.786-36.962-9.938-12.79-20.279-23.833-20.714-24.3a4.466,4.466,0,0,0-2.54-1.341l.233-6.033a4.475,4.475,0,0,0,1.656.462c.117.009.234.013.35.013a4.477,4.477,0,0,0,3.32-1.495c11.017,2.3,44.448,11.579,71.658,43.062,18.4,21.3,26.139,72.332,29.189,120.023q4.383-3.423,8.615-7.027c-3.5-47.249-11.9-96.784-30.994-118.88C317.738,265.413,282.307,255.678,270.186,253.235Zm15.941-67.086c.479-7.263.816-14.953,1.044-22.828,3.857.1,10.081.763,14.754,3.742,2.858,1.823,5.014,5.542,5.917,10.206s.353,9.425-1.371,11.835c-2.52,3.524-8.07,8.9-18.522,9.478l15.2-18.678a3,3,0,0,0-4.653-3.788l-12.494,15.348ZM93.066,178.527l12.891,15.1a2.97,2.97,0,0,0,2,1.023l.01.112c-10.366.595-16.083-4.215-18.68-7.389-1.644-2.009-2.423-6.328-1.894-10.5.537-4.231,2.243-7.682,4.68-9.469,4.252-3.119,10.283-4.023,13.694-4.282l2.557,24.043-10.7-12.53a3,3,0,0,0-4.564,3.895ZM13.4,334.737c-2.192-2.478-4.416-19.167-5.254-25.45-.446-3.354-.781-5.868-1.083-7.38.684-1.71,4.471-5.565,9.664-10.012-3.277,12.154-3.144,33.66,2.166,44.137.072.143.148.269.222.407C16.611,336.226,14.368,335.706,13.4,334.737Zm13.554-109c1.186,1.912,2.837,6.108,3.8,12.456.762,5.04,1.44,10.033,2.1,14.861,2.824,20.785,3.851,26.287,6.693,28.377a4.191,4.191,0,0,0,3.2.779c6.433-1.1,8.488-12.355,10.66-37.156.114-1.3.221-2.523.323-3.629l.047-.5c1.241-13.345,2.657-21.445,4.217-24.136a10.749,10.749,0,0,1,.776,1C63.915,225.2,63.34,262.9,61.7,287.1a123,123,0,0,0-21.178,2.735,12.078,12.078,0,0,0-.333-1.185c-2.28-6.4-6.177-8.2-9.045-8.59a10.226,10.226,0,0,0-2.453-.017C24.491,254.581,25.145,232.282,26.957,225.736ZM15.184,357.8c2.9-1.1,5.906-2.075,9.065-2.944l.213,4.64A72.336,72.336,0,0,1,15.184,357.8Zm13.577-21.549c-1.575,0-2.838-1.833-3.622-3.381-5.551-10.954-3.976-37.945.148-43.674a7,7,0,0,1,4.5-2.228,3.148,3.148,0,0,1,.435.03c1.358.189,2.491,1.535,3.361,3.975a9.352,9.352,0,0,1,.232.953c-.162.084-.306.186-.461.277-.174.1-.353.2-.518.312s-.331.251-.495.379-.311.233-.454.36-.293.292-.437.44c-.128.132-.265.258-.383.4-.136.161-.252.332-.375.5-.1.141-.215.276-.308.422-.115.18-.207.371-.307.559-.077.145-.164.285-.232.434-.092.2-.158.417-.231.628-.05.142-.113.28-.153.425-.068.24-.107.488-.151.735-.021.122-.057.241-.073.365a7.379,7.379,0,0,0-.053,1.135c0,.109.011.23.021.358,0,.045.011.094.016.141.009.089.018.178.032.274.008.059.02.122.03.184.015.091.031.183.051.28.014.07.031.142.048.215.022.1.047.193.074.293.021.078.044.157.068.237.031.1.066.206.1.311.029.084.059.168.092.255.041.107.087.216.134.327.039.089.076.177.118.268.053.113.114.229.174.345.047.091.091.181.143.273.073.13.157.263.24.395.05.081.095.16.149.242.138.206.288.415.452.625.073.093.157.188.236.282.1.123.2.246.316.37.094.1.2.208.3.311s.225.231.347.346.233.213.354.319.257.225.394.337.267.212.407.318.3.222.454.332.3.207.454.31.35.222.531.332c.162.1.322.2.493.292.055.031.1.064.158.1-.061,2-.1,3.889-.146,5.683-.2,8.6-.341,14.821-2.192,19-.754,1.705-2.71,3.56-4.419,3.605Zm38.93,10.221c0,.026,0,.05,0,.075,0,.079-.009.161-.011.243-.095,2.247-.19,7.572-.249,11.391a140.719,140.719,0,0,1-35.6,2.01l-1.346-17.108c4.3-.783,7.7-4.325,9.149-7.6h0c2.415-5.457,2.571-12.26,2.788-21.674.024-1.045.05-2.131.078-3.245a58.236,58.236,0,0,0,11.262,1.519,3.5,3.5,0,0,0,.328-6.993c-5.627-.263-10.324-1.13-13.594-2.513-3.129-1.308-4.3-2.808-4.317-3.5-.012-.374.485-.754.929-.973.127-.063.315-.148.59-.254l.007,0c.135-.052.29-.109.47-.171s.388-.13.621-.2H38.8c8.5-2.662,25.108-4.118,29.318-3.091C68.946,298.3,69.279,313.778,67.691,346.47ZM86.2,352.016a45.028,45.028,0,0,1-6.481,2.823c-1.587.578-3.233,1.109-4.923,1.59-.061-2.678-.1-4.642-.116-6.08A60.471,60.471,0,0,1,86.2,352.016ZM112.962,129c-2.973-52.248-1.789-68.5-1-73.362,1.877-3.6,6.153-8.5,15.481-8.182,10.746.364,16.135,6.175,20.889,11.3a42.15,42.15,0,0,0,5.55,5.328c4.864,3.595,11.078,3.631,19,.109a53.4,53.4,0,0,0,6.232-3.961c8.472-5.8,22.654-15.516,38.988-19.458,15.728-3.8,35.08-5.342,40.24-1.354,5.345,4.129,12.4,18.266,10.574,35.494-.918,8.658-4.058,12.883-6.827,16.61-2.647,3.563-4.934,6.64-4.259,12.309.792,6.656,9.6,25.113,16.662,39.092l-22.171,1.2A41.677,41.677,0,0,0,242.175,121.6a39.9,39.9,0,0,0-9.286-7.878,4.552,4.552,0,0,0,.617-.848,4.5,4.5,0,0,0-1.763-6.115,36.307,36.307,0,0,0-34.389-.738,4.5,4.5,0,0,0-1.656,6.145,4.444,4.444,0,0,0,1.414,1.484,48.382,48.382,0,0,0-18.147,19.607,33.781,33.781,0,0,0-4.4-6.329,45.077,45.077,0,0,0-15.8-11.43,4.5,4.5,0,0,0-.618-7.918,36.307,36.307,0,0,0-34.308,2.458,4.5,4.5,0,0,0,.548,7.665A36.454,36.454,0,0,0,112.962,129Zm132.352,20.351c-1.979,14.322-6.208,28.524-33.648,31.15a23.907,23.907,0,0,1-19.11-6.181c-6.4-5.813-10.529-15.426-10.529-24.49,0-20.274,20.462-34.518,31.54-34.526h.025A30.41,30.41,0,0,1,236.9,126.2C242.9,133.076,246.278,142.378,245.314,149.346Zm-131.346-3.793c-.008-.135-.017-.266-.025-.4,3.053-15.727,14.7-25.94,30.27-25.94h.083c8.423.019,18.7,5.081,24.992,12.31,3.053,3.508,6.5,9.086,5.591,15.737-2.025,14.8-16.04,31.208-35.985,33.055-8.122.755-14.461-1.03-18.833-5.3a20.136,20.136,0,0,1-4.27-6.275Q114.753,157.687,113.968,145.553Zm8.706,187.982c-4.529-.938-10.1-2.09-11.654-3.139a4.546,4.546,0,0,0-.262-1.065c-.085-.223-1.866-5.723,16.185-28.965,5.008-6.449,10.21-12.535,14.083-16.928l.663,6.819a4.5,4.5,0,0,0,4.474,4.065,4.35,4.35,0,0,0,.44-.022,4.5,4.5,0,0,0,4.044-4.914l-.088-.909c.048.072.094.145.142.218l.845,10.123a4.5,4.5,0,0,0,4.479,4.126c.125,0,.252,0,.379-.016a4.478,4.478,0,0,0,3.411-2.081c.458.529.921,1.047,1.386,1.56l.354,4.214a4.475,4.475,0,0,0,1.876,3.27l1.577,37.307C147.937,338.773,132.892,335.648,122.674,333.535Zm80.572,18.3c-11.411.755-20.054-5.515-25.665-18.647a72.56,72.56,0,0,1-4.565-16.1,5.47,5.47,0,0,0,2.15.629c1.793,6.236,4.632,12.513,9.138,17.039a22.2,22.2,0,0,0,16.283,6.72l.373,0a17.865,17.865,0,0,0,13-5.9c6.11-6.393,9.463-17.386,11.293-28.133a5.463,5.463,0,0,0,1.058.634q.018,1.861.038,3.856C224.166,330.908,218.038,350.857,203.246,351.838ZM195.889,313c.389-.061.77-.112,1.164-.181a5.5,5.5,0,0,0,5.319,4.611h.108a5.5,5.5,0,0,0,5.5-5.393l.035-1.858c.457-.137.909-.267,1.372-.412a5.5,5.5,0,0,0,5.143,4.311c.076,0,.151,0,.226,0a5.479,5.479,0,0,0,2.124-.432c-1.71,6.9-4.241,13.181-7.98,17.091a10.967,10.967,0,0,1-8.033,3.732,15.165,15.165,0,0,1-11.592-4.648c-4.093-4.107-6.534-10.3-8-16.325,1.172.14,2.379.234,3.625.274l.056,2.707a5.5,5.5,0,0,0,5.5,5.388h.113a5.5,5.5,0,0,0,5.388-5.612Zm83.279-12.632c18.051,23.242,16.27,28.742,16.186,28.965a4.449,4.449,0,0,0-.262,1.065c-1.553,1.049-7.125,2.2-11.655,3.139-11.067,2.289-27.792,5.75-46.626,15.864a4.425,4.425,0,0,0-1.006.765c-.288-21.787-.471-39.982-.573-51.133.422-.212.843-.421,1.268-.638a4.453,4.453,0,0,0,2.719,1.073l.175,0a4.5,4.5,0,0,0,4.493-4.329l.171-4.471c.894-1.4,1.874-3.062,2.952-5.039a4.482,4.482,0,0,0,3.961,2.408h.017a4.5,4.5,0,0,0,4.483-4.517l-.03-8.272a4.456,4.456,0,0,0,2.765,1.115c.059,0,.117,0,.176,0,.113,0,.22-.024.332-.032.084.108.154.224.249.326S269.487,287.9,279.168,300.366Zm-14.217-96.329-1.14,14.787a4.483,4.483,0,0,0-7.993,2.63l-.385,10c-.052.054-.1.106-.154.16l0-1.228a4.5,4.5,0,0,0-4.5-4.483h-.017a4.5,4.5,0,0,0-4.483,4.516l.037,10.035c-.216.2-.435.408-.654.612a4.491,4.491,0,0,0-8.764,1.209l-.258,6.765q-.81.677-1.633,1.349l.063-3.549a5.5,5.5,0,0,0-11-.2l-.215,12.119q-.811.552-1.628,1.09l.02-.489a5.5,5.5,0,0,0-10.992-.445l-.3,7.429q-1.058.516-2.115.989l.139-7.176a5.5,5.5,0,0,0-5.393-5.6h-.108a5.5,5.5,0,0,0-5.5,5.394l-.215,11.13q-1.367.292-2.718.487l-.09-4.42a5.5,5.5,0,1,0-11,.224l.084,4.163c-1.058-.112-2.1-.241-3.125-.4l-.049-10.109a5.5,5.5,0,0,0-11,.053l.036,7.438q-1.325-.43-2.591-.9l-.471-5.616a4.5,4.5,0,1,0-8.969.753l.05.591c-.109-.06-.212-.121-.32-.181l-1.237-14.826a4.5,4.5,0,0,0-8.969.748l.645,7.728c-.2-.159-.411-.321-.606-.478l-1.392-14.326a4.491,4.491,0,0,0-8.956.2l-1.874-15.176a4.5,4.5,0,0,0-8.932,1.1L127.375,237c-.082-.279-.165-.55-.246-.832l-3.145-23.824a4.487,4.487,0,0,0-3-3.652q-2.164-12.387-3.836-26.937c4.817,3.776,11.063,5.723,18.345,5.723q1.976,0,4.05-.192a47.251,47.251,0,0,0,33.247-18.355c-1.21,6.19-2.715,10.676-4.12,11.552a12.129,12.129,0,0,0-8.6,4.4c-1.894,2.218-3.957,6.1-3.025,11.99.733,4.643,4.72,9.635,18.479,9.634a78.264,78.264,0,0,0,9.65-.663,3.5,3.5,0,1,0-.868-6.946c-13.45,1.684-19.911-.354-20.347-3.117a7.645,7.645,0,0,1,1.433-6.35,5.277,5.277,0,0,1,3.435-1.944c5.334,0,8.768-5.713,11.06-18.423a38.112,38.112,0,0,0,7.962,10.439,30.749,30.749,0,0,0,21.1,8.131q1.671,0,3.385-.163c29.285-2.8,36.7-17.835,39.476-34.3l26.6-1.444c-.075,4.547-.18,9.057-.32,13.485a4.381,4.381,0,0,0-.527,1.962l-.292,12.751a4.492,4.492,0,0,0-3.3,3.917l-1.561,17.184a4.455,4.455,0,0,0-2.623-1.126A4.513,4.513,0,0,0,264.951,204.037Z"/><path class="fad56955-8d78-48ee-977f-a6a09bee092e" d="M148.131,141.421H156v15.86a4.5,4.5,0,0,0,9,0v-15.86h2.171a3.5,3.5,0,0,0,0-7h-19.04a3.5,3.5,0,0,0,0,7Z"/><path class="fad56955-8d78-48ee-977f-a6a09bee092e" d="M213.845,134.421H194.8a3.5,3.5,0,0,0,0,7h3.174v15.86a4.5,4.5,0,0,0,9,0v-15.86h6.867a3.5,3.5,0,0,0,0-7Z"/><path class="fad56955-8d78-48ee-977f-a6a09bee092e" d="M240.067,189.274a3.5,3.5,0,1,0-5.741,4.006l5.741,8.228c-.588.654-1.34,1.457-2.242,2.363L229.5,193.429a4.5,4.5,0,1,0-7.038,5.609L231.1,209.87c-1.37,1.088-2.869,2.207-4.493,3.326l-8.569-14.648a4.5,4.5,0,0,0-7.769,4.545l8.653,14.791c-2.163,1.158-4.479,2.262-6.933,3.28L205.63,205.4a4.5,4.5,0,1,0-8.347,3.365l6.189,15.349a74.248,74.248,0,0,1-8.369,1.836l-2.92-16.265a4.5,4.5,0,0,0-8.859,1.591l2.794,15.557a78.427,78.427,0,0,1-9.543-.223l1.343-14.472a4.5,4.5,0,1,0-8.961-.832l-1.305,14.049c-1.828-.369-3.582-.8-5.269-1.272l3.511-14.434a4.5,4.5,0,0,0-8.746-2.127l-3.292,13.535q-2.583-1.121-4.884-2.366l4.863-14.236a4.5,4.5,0,1,0-8.516-2.911l-4.159,12.173c-.911-.682-1.763-1.366-2.576-2.048l4.649-12.236a4.5,4.5,0,1,0-8.413-3.2l-3.222,8.481c-.557-.672-1.01-1.256-1.351-1.716l2.3-8.4a3.5,3.5,0,0,0-6.751-1.851l-2.733,9.975a3.5,3.5,0,0,0,.4,2.76,46.853,46.853,0,0,0,6.46,7.751c8.083,8.048,22.446,18.1,44.962,20.262,2.931.282,5.772.414,8.533.414,40.725,0,62.878-28.791,63.861-30.1a3.5,3.5,0,0,0,.073-4.106Z"/></g></g></svg>